# Terrain generated from heightmap.txt
v 49.0000 0.0000 0.0000
v 49.0000 0.0000 1.0000
v 49.0000 0.0000 2.0000
v 49.0000 0.0000 3.0000
v 49.0000 0.0000 4.0000
v 49.0000 0.0000 5.0000
v 49.0000 0.0000 6.0000
v 49.0000 0.0000 7.0000
v 49.0000 0.0000 8.0000
v 49.0000 0.0000 9.0000
v 49.0000 0.0000 10.0000
v 49.0000 0.0000 11.0000
v 25.0000 0.0000 12.0000
v 26.0000 0.0000 12.0000
v 27.0000 0.0000 12.0000
v 49.0000 0.0000 12.0000
v 24.0000 0.0000 13.0000
v 25.0000 0.0000 13.0000
v 26.0000 0.0000 13.0000
v 27.0000 0.0000 13.0000
v 28.0000 0.0000 13.0000
v 49.0000 0.0000 13.0000
v 24.0000 0.0000 14.0000
v 25.0000 0.0000 14.0000
v 26.0000 7.5000 14.0000
v 27.0000 7.5000 14.0000
v 28.0000 0.0000 14.0000
v 49.0000 0.0000 14.0000
v 23.0000 0.0000 15.0000
v 24.0000 0.0000 15.0000
v 25.0000 0.0000 15.0000
v 26.0000 7.5000 15.0000
v 27.0000 7.5000 15.0000
v 28.0000 0.0000 15.0000
v 29.0000 0.0000 15.0000
v 49.0000 0.0000 15.0000
v 22.0000 0.0000 16.0000
v 23.0000 0.0000 16.0000
v 24.0000 0.0000 16.0000
v 25.0000 8.0000 16.0000
v 26.0000 0.5000 16.0000
v 27.0000 7.5000 16.0000
v 28.0000 7.5000 16.0000
v 29.0000 0.0000 16.0000
v 30.0000 0.0000 16.0000
v 49.0000 0.0000 16.0000
v 21.0000 0.0000 17.0000
v 22.0000 0.0000 17.0000
v 23.0000 0.0000 17.0000
v 24.0000 0.5000 17.0000
v 25.0000 0.5000 17.0000
v 26.0000 0.5000 17.0000
v 27.0000 0.5000 17.0000
v 28.0000 7.5000 17.0000
v 29.0000 7.5000 17.0000
v 30.0000 0.0000 17.0000
v 49.0000 0.0000 17.0000
v 21.0000 0.0000 18.0000
v 22.0000 0.0000 18.0000
v 23.0000 0.5000 18.0000
v 24.0000 0.5000 18.0000
v 25.0000 0.5000 18.0000
v 26.0000 0.5000 18.0000
v 27.0000 7.5000 18.0000
v 28.0000 7.5000 18.0000
v 29.0000 7.5000 18.0000
v 30.0000 0.0000 18.0000
v 49.0000 0.0000 18.0000
v 21.0000 0.0000 19.0000
v 22.0000 0.0000 19.0000
v 23.0000 0.0000 19.0000
v 24.0000 0.5000 19.0000
v 25.0000 0.5000 19.0000
v 26.0000 0.5000 19.0000
v 27.0000 7.5000 19.0000
v 28.0000 7.5000 19.0000
v 29.0000 0.0000 19.0000
v 49.0000 0.0000 19.0000
v 21.0000 0.0000 20.0000
v 22.0000 0.0000 20.0000
v 23.0000 8.0000 20.0000
v 24.0000 0.5000 20.0000
v 25.0000 0.5000 20.0000
v 26.0000 0.5000 20.0000
v 27.0000 7.5000 20.0000
v 28.0000 0.0000 20.0000
v 29.0000 0.0000 20.0000
v 49.0000 0.0000 20.0000
v 21.0000 0.0000 21.0000
v 22.0000 0.0000 21.0000
v 23.0000 7.5000 21.0000
v 24.0000 0.5000 21.0000
v 25.0000 0.5000 21.0000
v 26.0000 0.5000 21.0000
v 27.0000 7.5000 21.0000
v 28.0000 7.5000 21.0000
v 29.0000 0.0000 21.0000
v 30.0000 0.0000 21.0000
v 49.0000 0.0000 21.0000
v 21.0000 0.0000 22.0000
v 22.0000 0.0000 22.0000
v 23.0000 0.0000 22.0000
v 24.0000 7.5000 22.0000
v 25.0000 0.5000 22.0000
v 26.0000 0.5000 22.0000
v 27.0000 0.5000 22.0000
v 28.0000 7.5000 22.0000
v 29.0000 7.5000 22.0000
v 30.0000 0.0000 22.0000
v 31.0000 0.0000 22.0000
v 49.0000 0.0000 22.0000
v 19.0000 0.0000 23.0000
v 20.0000 0.0000 23.0000
v 21.0000 0.0000 23.0000
v 22.0000 0.0000 23.0000
v 23.0000 7.5000 23.0000
v 24.0000 7.5000 23.0000
v 25.0000 0.5000 23.0000
v 26.0000 0.5000 23.0000
v 27.0000 0.5000 23.0000
v 28.0000 0.5000 23.0000
v 29.0000 7.5000 23.0000
v 30.0000 7.5000 23.0000
v 31.0000 0.0000 23.0000
v 49.0000 0.0000 23.0000
v 18.0000 0.0000 24.0000
v 19.0000 0.0000 24.0000
v 20.0000 0.0000 24.0000
v 21.0000 0.0000 24.0000
v 22.0000 7.5000 24.0000
v 23.0000 7.5000 24.0000
v 24.0000 0.5000 24.0000
v 25.0000 0.5000 24.0000
v 26.0000 0.5000 24.0000
v 27.0000 0.5000 24.0000
v 28.0000 7.5000 24.0000
v 29.0000 7.5000 24.0000
v 30.0000 0.0000 24.0000
v 49.0000 0.0000 24.0000
v 17.0000 0.0000 25.0000
v 18.0000 0.0000 25.0000
v 19.0000 0.0000 25.0000
v 20.0000 7.5000 25.0000
v 21.0000 7.5000 25.0000
v 22.0000 7.5000 25.0000
v 23.0000 0.5000 25.0000
v 24.0000 0.5000 25.0000
v 25.0000 0.5000 25.0000
v 26.0000 0.5000 25.0000
v 27.0000 0.5000 25.0000
v 28.0000 7.5000 25.0000
v 29.0000 0.0000 25.0000
v 30.0000 0.0000 25.0000
v 49.0000 0.0000 25.0000
v 16.0000 0.0000 26.0000
v 17.0000 0.0000 26.0000
v 18.0000 0.0000 26.0000
v 19.0000 7.5000 26.0000
v 20.0000 7.5000 26.0000
v 21.0000 7.5000 26.0000
v 22.0000 7.5000 26.0000
v 23.0000 7.5000 26.0000
v 24.0000 0.5000 26.0000
v 25.0000 0.5000 26.0000
v 26.0000 0.5000 26.0000
v 27.0000 8.0000 26.0000
v 28.0000 8.0000 26.0000
v 29.0000 7.5000 26.0000
v 30.0000 0.0000 26.0000
v 49.0000 0.0000 26.0000
v 15.0000 0.0000 27.0000
v 16.0000 0.0000 27.0000
v 17.0000 0.0000 27.0000
v 18.0000 7.5000 27.0000
v 19.0000 7.5000 27.0000
v 20.0000 7.5000 27.0000
v 21.0000 7.5000 27.0000
v 22.0000 7.5000 27.0000
v 23.0000 0.5000 27.0000
v 24.0000 0.5000 27.0000
v 25.0000 0.5000 27.0000
v 26.0000 0.5000 27.0000
v 27.0000 8.0000 27.0000
v 28.0000 8.0000 27.0000
v 29.0000 8.0000 27.0000
v 30.0000 0.0000 27.0000
v 31.0000 0.0000 27.0000
v 49.0000 0.0000 27.0000
v 14.0000 0.0000 28.0000
v 15.0000 0.0000 28.0000
v 16.0000 0.0000 28.0000
v 17.0000 7.5000 28.0000
v 18.0000 7.5000 28.0000
v 19.0000 0.5000 28.0000
v 20.0000 7.5000 28.0000
v 21.0000 7.5000 28.0000
v 22.0000 0.5000 28.0000
v 23.0000 0.5000 28.0000
v 24.0000 0.5000 28.0000
v 25.0000 0.5000 28.0000
v 26.0000 8.0000 28.0000
v 27.0000 8.0000 28.0000
v 28.0000 8.0000 28.0000
v 29.0000 8.0000 28.0000
v 30.0000 7.5000 28.0000
v 31.0000 0.0000 28.0000
v 49.0000 0.0000 28.0000
v 12.0000 0.0000 29.0000
v 13.0000 0.0000 29.0000
v 14.0000 0.0000 29.0000
v 15.0000 0.0000 29.0000
v 16.0000 0.5000 29.0000
v 17.0000 0.5000 29.0000
v 18.0000 0.5000 29.0000
v 19.0000 0.5000 29.0000
v 20.0000 0.5000 29.0000
v 21.0000 0.5000 29.0000
v 22.0000 0.5000 29.0000
v 23.0000 0.5000 29.0000
v 24.0000 0.5000 29.0000
v 25.0000 0.5000 29.0000
v 26.0000 8.0000 29.0000
v 27.0000 8.0000 29.0000
v 28.0000 8.0000 29.0000
v 29.0000 7.5000 29.0000
v 30.0000 0.0000 29.0000
v 49.0000 0.0000 29.0000
v 11.0000 0.0000 30.0000
v 12.0000 0.0000 30.0000
v 13.0000 0.0000 30.0000
v 14.0000 0.5000 30.0000
v 15.0000 0.5000 30.0000
v 16.0000 0.5000 30.0000
v 17.0000 0.5000 30.0000
v 18.0000 0.5000 30.0000
v 19.0000 0.5000 30.0000
v 20.0000 0.5000 30.0000
v 21.0000 0.5000 30.0000
v 22.0000 0.5000 30.0000
v 23.0000 0.5000 30.0000
v 24.0000 0.5000 30.0000
v 25.0000 0.5000 30.0000
v 26.0000 0.5000 30.0000
v 27.0000 8.0000 30.0000
v 28.0000 7.5000 30.0000
v 29.0000 0.0000 30.0000
v 49.0000 0.0000 30.0000
v 11.0000 0.0000 31.0000
v 12.0000 0.0000 31.0000
v 13.0000 0.5000 31.0000
v 14.0000 0.5000 31.0000
v 15.0000 8.0000 31.0000
v 16.0000 0.5000 31.0000
v 17.0000 0.5000 31.0000
v 18.0000 8.0000 31.0000
v 19.0000 0.5000 31.0000
v 20.0000 0.5000 31.0000
v 21.0000 0.5000 31.0000
v 22.0000 0.5000 31.0000
v 23.0000 0.5000 31.0000
v 24.0000 0.5000 31.0000
v 25.0000 0.5000 31.0000
v 26.0000 7.5000 31.0000
v 27.0000 7.5000 31.0000
v 28.0000 7.5000 31.0000
v 29.0000 0.0000 31.0000
v 49.0000 0.0000 31.0000
v 8.0000 0.0000 32.0000
v 9.0000 0.0000 32.0000
v 10.0000 0.0000 32.0000
v 11.0000 0.0000 32.0000
v 12.0000 0.0000 32.0000
v 13.0000 7.5000 32.0000
v 14.0000 7.5000 32.0000
v 15.0000 7.5000 32.0000
v 16.0000 7.5000 32.0000
v 17.0000 0.5000 32.0000
v 18.0000 7.5000 32.0000
v 19.0000 8.0000 32.0000
v 20.0000 8.0000 32.0000
v 21.0000 0.5000 32.0000
v 22.0000 0.5000 32.0000
v 23.0000 0.5000 32.0000
v 24.0000 0.5000 32.0000
v 25.0000 7.5000 32.0000
v 26.0000 7.5000 32.0000
v 27.0000 7.5000 32.0000
v 28.0000 0.0000 32.0000
v 29.0000 0.0000 32.0000
v 49.0000 0.0000 32.0000
v 7.0000 0.0000 33.0000
v 8.0000 0.0000 33.0000
v 9.0000 0.0000 33.0000
v 10.0000 0.0000 33.0000
v 11.0000 0.0000 33.0000
v 12.0000 7.5000 33.0000
v 13.0000 7.5000 33.0000
v 14.0000 7.5000 33.0000
v 15.0000 7.5000 33.0000
v 16.0000 7.5000 33.0000
v 17.0000 8.0000 33.0000
v 18.0000 8.0000 33.0000
v 19.0000 8.0000 33.0000
v 20.0000 8.0000 33.0000
v 21.0000 8.0000 33.0000
v 22.0000 0.5000 33.0000
v 23.0000 0.5000 33.0000
v 24.0000 0.5000 33.0000
v 25.0000 7.5000 33.0000
v 26.0000 7.5000 33.0000
v 27.0000 7.5000 33.0000
v 28.0000 0.0000 33.0000
v 29.0000 0.0000 33.0000
v 30.0000 0.0000 33.0000
v 31.0000 0.0000 33.0000
v 49.0000 0.0000 33.0000
v 6.0000 0.0000 34.0000
v 7.0000 0.0000 34.0000
v 8.0000 0.0000 34.0000
v 9.0000 7.5000 34.0000
v 10.0000 0.0000 34.0000
v 11.0000 7.5000 34.0000
v 12.0000 7.5000 34.0000
v 13.0000 7.5000 34.0000
v 14.0000 7.5000 34.0000
v 15.0000 7.5000 34.0000
v 16.0000 7.5000 34.0000
v 17.0000 7.5000 34.0000
v 18.0000 8.0000 34.0000
v 19.0000 8.0000 34.0000
v 20.0000 8.0000 34.0000
v 21.0000 8.0000 34.0000
v 22.0000 0.5000 34.0000
v 23.0000 0.5000 34.0000
v 24.0000 0.5000 34.0000
v 25.0000 0.5000 34.0000
v 26.0000 0.5000 34.0000
v 27.0000 7.5000 34.0000
v 28.0000 8.0000 34.0000
v 29.0000 8.0000 34.0000
v 30.0000 0.0000 34.0000
v 31.0000 0.0000 34.0000
v 32.0000 0.0000 34.0000
v 33.0000 0.0000 34.0000
v 49.0000 0.0000 34.0000
v 6.0000 0.0000 35.0000
v 7.0000 0.0000 35.0000
v 8.0000 7.5000 35.0000
v 9.0000 7.5000 35.0000
v 10.0000 7.5000 35.0000
v 11.0000 7.5000 35.0000
v 12.0000 7.5000 35.0000
v 13.0000 7.5000 35.0000
v 14.0000 7.5000 35.0000
v 15.0000 7.5000 35.0000
v 16.0000 7.5000 35.0000
v 17.0000 7.5000 35.0000
v 18.0000 7.5000 35.0000
v 19.0000 8.0000 35.0000
v 20.0000 8.0000 35.0000
v 21.0000 7.5000 35.0000
v 22.0000 0.5000 35.0000
v 23.0000 0.5000 35.0000
v 24.0000 0.5000 35.0000
v 25.0000 0.5000 35.0000
v 26.0000 0.5000 35.0000
v 27.0000 0.5000 35.0000
v 28.0000 8.0000 35.0000
v 29.0000 8.0000 35.0000
v 30.0000 8.0000 35.0000
v 31.0000 0.0000 35.0000
v 32.0000 0.0000 35.0000
v 33.0000 0.0000 35.0000
v 34.0000 0.0000 35.0000
v 49.0000 0.0000 35.0000
v 7.0000 0.0000 36.0000
v 8.0000 0.0000 36.0000
v 9.0000 7.5000 36.0000
v 10.0000 7.5000 36.0000
v 11.0000 7.5000 36.0000
v 12.0000 7.5000 36.0000
v 13.0000 7.5000 36.0000
v 14.0000 7.5000 36.0000
v 15.0000 7.5000 36.0000
v 16.0000 7.5000 36.0000
v 17.0000 7.5000 36.0000
v 18.0000 0.0000 36.0000
v 19.0000 0.0000 36.0000
v 20.0000 0.0000 36.0000
v 21.0000 0.0000 36.0000
v 22.0000 7.5000 36.0000
v 23.0000 0.5000 36.0000
v 24.0000 0.5000 36.0000
v 25.0000 0.5000 36.0000
v 26.0000 0.5000 36.0000
v 27.0000 0.5000 36.0000
v 28.0000 8.0000 36.0000
v 29.0000 8.0000 36.0000
v 30.0000 8.0000 36.0000
v 31.0000 8.0000 36.0000
v 32.0000 8.0000 36.0000
v 33.0000 7.5000 36.0000
v 34.0000 0.0000 36.0000
v 35.0000 0.0000 36.0000
v 49.0000 0.0000 36.0000
v 8.0000 0.0000 37.0000
v 9.0000 0.0000 37.0000
v 10.0000 7.5000 37.0000
v 11.0000 7.5000 37.0000
v 12.0000 7.5000 37.0000
v 13.0000 7.5000 37.0000
v 14.0000 7.5000 37.0000
v 15.0000 7.5000 37.0000
v 16.0000 7.5000 37.0000
v 17.0000 0.0000 37.0000
v 21.0000 0.0000 37.0000
v 22.0000 0.0000 37.0000
v 23.0000 0.0000 37.0000
v 24.0000 0.0000 37.0000
v 25.0000 0.5000 37.0000
v 26.0000 0.5000 37.0000
v 27.0000 0.5000 37.0000
v 28.0000 0.5000 37.0000
v 29.0000 0.5000 37.0000
v 30.0000 8.0000 37.0000
v 31.0000 0.5000 37.0000
v 32.0000 7.5000 37.0000
v 33.0000 7.5000 37.0000
v 34.0000 7.5000 37.0000
v 35.0000 0.0000 37.0000
v 36.0000 0.0000 37.0000
v 37.0000 0.0000 37.0000
v 49.0000 0.0000 37.0000
v 9.0000 0.0000 38.0000
v 10.0000 0.0000 38.0000
v 11.0000 7.5000 38.0000
v 12.0000 7.5000 38.0000
v 13.0000 7.5000 38.0000
v 14.0000 7.5000 38.0000
v 15.0000 7.5000 38.0000
v 16.0000 0.0000 38.0000
v 24.0000 0.0000 38.0000
v 25.0000 0.0000 38.0000
v 26.0000 0.5000 38.0000
v 27.0000 0.5000 38.0000
v 28.0000 0.5000 38.0000
v 29.0000 0.5000 38.0000
v 30.0000 0.5000 38.0000
v 31.0000 0.5000 38.0000
v 32.0000 7.5000 38.0000
v 33.0000 7.5000 38.0000
v 34.0000 7.5000 38.0000
v 35.0000 7.5000 38.0000
v 36.0000 0.0000 38.0000
v 37.0000 0.0000 38.0000
v 38.0000 0.0000 38.0000
v 49.0000 0.0000 38.0000
v 9.0000 0.0000 39.0000
v 10.0000 0.0000 39.0000
v 11.0000 7.5000 39.0000
v 12.0000 7.5000 39.0000
v 13.0000 0.0000 39.0000
v 14.0000 7.5000 39.0000
v 15.0000 0.0000 39.0000
v 25.0000 0.0000 39.0000
v 26.0000 0.0000 39.0000
v 27.0000 0.5000 39.0000
v 28.0000 0.5000 39.0000
v 29.0000 0.5000 39.0000
v 30.0000 0.5000 39.0000
v 31.0000 0.5000 39.0000
v 32.0000 0.5000 39.0000
v 33.0000 0.5000 39.0000
v 34.0000 7.5000 39.0000
v 35.0000 7.5000 39.0000
v 36.0000 7.5000 39.0000
v 37.0000 7.5000 39.0000
v 38.0000 0.0000 39.0000
v 49.0000 0.0000 39.0000
v 10.0000 0.0000 40.0000
v 11.0000 0.0000 40.0000
v 12.0000 0.0000 40.0000
v 13.0000 0.0000 40.0000
v 14.0000 0.0000 40.0000
v 25.0000 0.0000 40.0000
v 26.0000 0.0000 40.0000
v 27.0000 7.5000 40.0000
v 28.0000 7.5000 40.0000
v 29.0000 0.5000 40.0000
v 30.0000 7.5000 40.0000
v 31.0000 0.5000 40.0000
v 32.0000 0.5000 40.0000
v 33.0000 0.5000 40.0000
v 34.0000 7.5000 40.0000
v 35.0000 7.5000 40.0000
v 36.0000 7.5000 40.0000
v 37.0000 7.5000 40.0000
v 38.0000 0.0000 40.0000
v 49.0000 0.0000 40.0000
v 26.0000 0.0000 41.0000
v 27.0000 0.0000 41.0000
v 28.0000 0.0000 41.0000
v 29.0000 0.0000 41.0000
v 30.0000 7.5000 41.0000
v 31.0000 7.5000 41.0000
v 32.0000 0.5000 41.0000
v 33.0000 0.5000 41.0000
v 34.0000 0.5000 41.0000
v 35.0000 7.5000 41.0000
v 36.0000 7.5000 41.0000
v 37.0000 0.0000 41.0000
v 49.0000 0.0000 41.0000
v 29.0000 0.0000 42.0000
v 30.0000 0.0000 42.0000
v 31.0000 7.5000 42.0000
v 32.0000 7.5000 42.0000
v 33.0000 0.5000 42.0000
v 34.0000 0.5000 42.0000
v 35.0000 0.0000 42.0000
v 36.0000 0.0000 42.0000
v 49.0000 0.0000 42.0000
v 30.0000 0.0000 43.0000
v 31.0000 0.0000 43.0000
v 32.0000 0.0000 43.0000
v 33.0000 0.0000 43.0000
v 34.0000 0.0000 43.0000
v 49.0000 0.0000 43.0000
v 49.0000 0.0000 44.0000
v 49.0000 0.0000 45.0000
v 49.0000 0.0000 46.0000
v 49.0000 0.0000 47.0000
v 49.0000 0.0000 48.0000
v 0.0000 0.0000 49.0000
v 1.0000 0.0000 49.0000
v 2.0000 0.0000 49.0000
v 3.0000 0.0000 49.0000
v 4.0000 0.0000 49.0000
v 5.0000 0.0000 49.0000
v 6.0000 0.0000 49.0000
v 7.0000 0.0000 49.0000
v 8.0000 0.0000 49.0000
v 9.0000 0.0000 49.0000
v 10.0000 0.0000 49.0000
v 11.0000 0.0000 49.0000
v 12.0000 0.0000 49.0000
v 13.0000 0.0000 49.0000
v 14.0000 0.0000 49.0000
v 15.0000 0.0000 49.0000
v 16.0000 0.0000 49.0000
v 17.0000 0.0000 49.0000
v 18.0000 0.0000 49.0000
v 19.0000 0.0000 49.0000
v 20.0000 0.0000 49.0000
v 21.0000 0.0000 49.0000
v 22.0000 0.0000 49.0000
v 23.0000 0.0000 49.0000
v 24.0000 0.0000 49.0000
v 25.0000 0.0000 49.0000
v 26.0000 0.0000 49.0000
v 27.0000 0.0000 49.0000
v 28.0000 0.0000 49.0000
v 29.0000 0.0000 49.0000
v 30.0000 0.0000 49.0000
v 31.0000 0.0000 49.0000
v 32.0000 0.0000 49.0000
v 33.0000 0.0000 49.0000
v 34.0000 0.0000 49.0000
v 35.0000 0.0000 49.0000
v 36.0000 0.0000 49.0000
v 37.0000 0.0000 49.0000
v 38.0000 0.0000 49.0000
v 39.0000 0.0000 49.0000
v 40.0000 0.0000 49.0000
v 41.0000 0.0000 49.0000
v 42.0000 0.0000 49.0000
v 43.0000 0.0000 49.0000
v 44.0000 0.0000 49.0000
v 45.0000 0.0000 49.0000
v 46.0000 0.0000 49.0000
v 47.0000 0.0000 49.0000
v 48.0000 0.0000 49.0000
v 49.0000 0.0000 49.0000
vn -0.000000 -1.000000 0.000000vn -0.000000 1.000000 -0.000000vn -0.000000 1.000000 -0.000000vn -0.000000 -1.000000 -0.000000vn -0.000000 1.000000 -0.000000vn -0.000000 1.000000 -0.000000vn -0.000000 0.132164 -0.991228vn -0.000000 0.132164 -0.991228vn -0.000000 -1.000000 0.000000vn -0.000000 1.000000 -0.000000vn -0.991228 0.132164 -0.000000vn -0.000000 1.000000 -0.000000vn 0.991228 0.132164 -0.000000vn -0.000000 -1.000000 -0.000000vn -0.000000 -1.000000 0.000000vn -0.000000 1.000000 -0.000000vn -0.000000 1.000000 -0.000000vn -0.681115 0.090815 -0.726523vn -0.000000 0.141421 0.989949vn 0.991228 0.132164 -0.000000vn -0.000000 0.132164 -0.991228vn -0.000000 -1.000000 -0.000000vn -0.000000 -1.000000 0.000000vn -0.000000 1.000000 -0.000000vn -0.000000 1.000000 -0.000000vn -0.990375 0.123797 -0.061898vn 0.703985 0.093865 0.703985vn -0.989949 0.141421 -0.000000vn -0.000000 0.141421 0.989949vn 0.991228 0.132164 -0.000000vn -0.000000 0.132164 -0.991228vn -0.000000 1.000000 -0.000000vn -0.000000 1.000000 -0.000000vn -0.408248 0.816497 -0.408248vn -0.000000 1.000000 -0.000000vn -0.000000 1.000000 -0.000000vn -0.000000 1.000000 -0.000000vn -0.703526 0.100504 -0.703526vn -0.000000 1.000000 -0.000000vn 0.991228 0.132164 -0.000000vn -0.000000 1.000000 -0.000000vn -0.447214 0.894427 -0.000000vn -0.000000 0.894427 0.447214vn -0.000000 1.000000 -0.000000vn -0.000000 1.000000 -0.000000vn -0.989949 0.141421 -0.000000vn -0.000000 1.000000 -0.000000vn -0.000000 1.000000 -0.000000vn 0.703985 0.093865 0.703985vn -0.000000 1.000000 -0.000000vn -0.000000 1.000000 -0.000000vn -0.061898 0.123797 -0.990375vn -0.000000 1.000000 -0.000000vn -0.000000 1.000000 -0.000000vn -0.989949 0.141421 -0.000000vn -0.000000 1.000000 -0.000000vn 0.703985 0.093865 0.703985vn -0.000000 1.000000 -0.000000vn -0.992278 0.124035 -0.000000vn 0.989071 0.131876 0.065938vn -0.000000 1.000000 -0.000000vn -0.000000 1.000000 -0.000000vn -0.989949 0.141421 -0.000000vn 0.991228 0.132164 -0.000000vn -0.000000 0.132164 -0.991228vn -0.000000 -1.000000 -0.000000vn -0.000000 1.000000 -0.000000vn -0.991228 0.132164 -0.000000vn 0.679100 0.097014 0.727607vn -0.000000 0.141421 -0.989949vn -0.000000 1.000000 -0.000000vn -0.989949 0.141421 -0.000000vn -0.000000 0.141421 0.989949vn 0.991228 0.132164 -0.000000vn -0.000000 0.132164 -0.991228vn -0.000000 -1.000000 -0.000000vn -0.000000 -1.000000 0.000000vn -0.000000 1.000000 -0.000000vn -0.000000 1.000000 -0.000000vn -0.703985 0.093865 -0.703985vn 0.989949 0.141421 -0.000000vn -0.000000 1.000000 -0.000000vn -0.000000 1.000000 -0.000000vn -0.989949 0.141421 -0.000000vn -0.000000 0.141421 0.989949vn 0.991228 0.132164 -0.000000vn -0.000000 0.132164 -0.991228vn -0.000000 -1.000000 0.000000vn -0.000000 1.000000 -0.000000vn -0.000000 1.000000 -0.000000vn -0.000000 1.000000 -0.000000vn -0.703985 0.093865 -0.703985vn -0.000000 1.000000 -0.000000vn 0.703526 0.100504 0.703526vn -0.000000 1.000000 -0.000000vn -0.000000 1.000000 -0.000000vn -0.000000 1.000000 -0.000000vn -0.703526 0.100504 -0.703526vn -0.000000 1.000000 -0.000000vn 0.703985 0.093865 0.703985vn -0.000000 -1.000000 0.000000vn -0.000000 1.000000 -0.000000vn -0.000000 1.000000 -0.000000vn -0.000000 0.132164 -0.991228vn -0.703985 0.093865 -0.703985vn -0.000000 1.000000 -0.000000vn 0.703526 0.100504 0.703526vn -0.000000 1.000000 -0.000000vn -0.000000 1.000000 -0.000000vn -0.000000 1.000000 -0.000000vn -0.989949 0.141421 -0.000000vn -0.000000 1.000000 -0.000000vn 0.703985 0.093865 0.703985vn -0.000000 -1.000000 0.000000vn -0.000000 1.000000 -0.000000vn -0.000000 1.000000 -0.000000vn -0.703985 0.093865 -0.703985vn -0.000000 1.000000 -0.000000vn -0.000000 1.000000 -0.000000vn 0.989949 0.141421 -0.000000vn -0.000000 0.141421 -0.989949vn -0.000000 1.000000 -0.000000vn -0.000000 1.000000 -0.000000vn -0.000000 1.000000 -0.000000vn -0.679100 0.097014 -0.727607vn 0.989071 0.131876 -0.065938vn -0.000000 0.132164 -0.991228vn -0.000000 -1.000000 0.000000vn -0.000000 1.000000 -0.000000vn -0.000000 1.000000 -0.000000vn -0.703985 0.093865 -0.703985vn -0.000000 1.000000 -0.000000vn -0.000000 1.000000 -0.000000vn -0.000000 1.000000 -0.000000vn -0.000000 1.000000 -0.000000vn 0.703526 0.100504 0.703526vn -0.000000 1.000000 -0.000000vn -0.000000 1.000000 -0.000000vn -0.991228 0.132164 -0.000000vn -0.000000 1.000000 -0.000000vn 0.447214 0.894427 -0.000000vn 0.989071 0.131876 -0.065938vn -0.000000 -1.000000 -0.000000vn -0.000000 -1.000000 0.000000vn -0.000000 1.000000 -0.000000vn -0.000000 1.000000 -0.000000vn -0.703985 0.093865 -0.703985vn -0.000000 1.000000 -0.000000vn -0.000000 0.141421 0.989949vn -0.000000 1.000000 -0.000000vn -0.000000 1.000000 -0.000000vn 0.703526 0.100504 0.703526vn -0.000000 1.000000 -0.000000vn -0.000000 1.000000 -0.000000vn -0.000000 1.000000 -0.000000vn -0.703985 0.093865 -0.703985vn -0.000000 1.000000 -0.000000vn -0.000000 1.000000 -0.000000vn 0.992278 0.124035 -0.000000vn -0.000000 0.132164 -0.991228vn -0.000000 -1.000000 0.000000vn -0.000000 1.000000 -0.000000vn -0.000000 1.000000 -0.000000vn -0.989071 0.131876 -0.065938vn -0.000000 0.141421 0.989949vn 0.703526 0.100504 0.703526vn -0.989949 0.141421 -0.000000vn -0.000000 0.141421 0.989949vn 0.703526 0.100504 0.703526vn -0.000000 1.000000 -0.000000vn -0.000000 1.000000 -0.000000vn -0.000000 1.000000 -0.000000vn -0.991228 0.132164 -0.000000vn -0.000000 1.000000 -0.000000vn -0.000000 1.000000 -0.000000vn -0.000000 1.000000 -0.000000vn 0.408248 0.816497 0.408248vn 0.703985 0.093865 0.703985vn -0.000000 -1.000000 0.000000vn -0.000000 1.000000 -0.000000vn -0.000000 1.000000 -0.000000vn -0.000000 0.894427 -0.447214vn -0.408248 0.816497 -0.408248vn -0.000000 1.000000 -0.000000vn -0.000000 1.000000 -0.000000vn -0.000000 1.000000 -0.000000vn -0.000000 1.000000 -0.000000vn -0.000000 1.000000 -0.000000vn -0.000000 1.000000 -0.000000vn -0.000000 1.000000 -0.000000vn -0.000000 1.000000 -0.000000vn -0.000000 1.000000 -0.000000vn -0.991228 0.132164 -0.000000vn -0.000000 0.132164 0.991228vn -0.000000 1.000000 -0.000000vn 0.408248 0.816497 0.408248vn 0.703985 0.093865 0.703985vn -0.000000 1.000000 -0.000000vn -0.000000 1.000000 -0.000000vn -0.408248 0.816497 -0.408248vn -0.000000 1.000000 -0.000000vn -0.000000 0.132164 -0.991228vn -0.000000 1.000000 -0.000000vn -0.000000 1.000000 -0.000000vn -0.000000 0.132164 -0.991228vn -0.000000 1.000000 -0.000000vn -0.000000 1.000000 -0.000000vn -0.000000 1.000000 -0.000000vn -0.000000 1.000000 -0.000000vn -0.000000 1.000000 -0.000000vn -0.000000 1.000000 -0.000000vn -0.000000 1.000000 -0.000000vn -0.727607 0.097014 -0.679100vn 0.408248 0.816497 0.408248vn 0.991228 0.132164 -0.000000vn -0.000000 -1.000000 0.000000vn -0.000000 1.000000 -0.000000vn -0.447214 0.894427 -0.000000vn -0.000000 0.141421 -0.989949vn -0.727607 0.097014 -0.679100vn 0.989071 0.131876 0.065938vn -0.000000 0.141421 -0.989949vn -0.991228 0.132164 -0.000000vn 0.989071 0.131876 0.065938vn -0.000000 0.132164 -0.991228vn -0.000000 0.132164 -0.991228vn -0.000000 1.000000 -0.000000vn -0.000000 1.000000 -0.000000vn -0.000000 1.000000 -0.000000vn -0.000000 1.000000 -0.000000vn -0.703526 0.100504 -0.703526vn -0.000000 1.000000 -0.000000vn -0.000000 1.000000 -0.000000vn 0.703985 0.093865 0.703985vn -0.000000 -1.000000 0.000000vn -0.000000 1.000000 -0.000000vn -0.000000 1.000000 -0.000000vn -0.000000 1.000000 -0.000000vn -0.000000 1.000000 -0.000000vn -0.703985 0.093865 -0.703985vn -0.000000 1.000000 -0.000000vn -0.000000 1.000000 -0.000000vn -0.000000 1.000000 -0.000000vn 0.989949 0.141421 -0.000000vn -0.679100 0.097014 -0.727607vn -0.408248 0.816497 -0.408248vn -0.000000 1.000000 -0.000000vn 0.991228 0.132164 -0.000000vn -0.000000 0.132164 -0.991228vn -0.000000 1.000000 -0.000000vn -0.000000 1.000000 -0.000000vn -0.989949 0.141421 -0.000000vn -0.000000 1.000000 -0.000000vn -0.000000 1.000000 -0.000000vn 0.991228 0.132164 -0.000000vn -0.000000 1.000000 -0.000000vn -0.000000 -1.000000 -0.000000vn -0.000000 -1.000000 0.000000vn -0.000000 1.000000 -0.000000vn -0.000000 1.000000 -0.000000vn -0.000000 0.132164 -0.991228vn -0.000000 1.000000 -0.000000vn -0.703985 0.093865 -0.703985vn -0.000000 1.000000 -0.000000vn -0.000000 1.000000 -0.000000vn -0.000000 1.000000 -0.000000vn -0.000000 1.000000 -0.000000vn -0.447214 0.894427 -0.000000vn -0.000000 0.894427 0.447214vn -0.000000 1.000000 -0.000000vn -0.000000 1.000000 -0.000000vn -0.000000 1.000000 -0.000000vn 0.991228 0.132164 -0.000000vn -0.000000 1.000000 -0.000000vn -0.000000 1.000000 -0.000000vn -0.989949 0.141421 -0.000000vn -0.000000 0.141421 0.989949vn -0.000000 0.141421 0.989949vn 0.991228 0.132164 -0.000000vn -0.000000 0.124035 -0.992278vn -0.000000 0.124035 -0.992278vn -0.000000 1.000000 -0.000000vn -0.000000 -1.000000 -0.000000vn -0.000000 1.000000 -0.000000vn -0.000000 1.000000 -0.000000vn -0.703985 0.093865 -0.703985vn 0.991228 0.132164 -0.000000vn -0.703985 0.093865 -0.703985vn -0.000000 1.000000 -0.000000vn -0.000000 1.000000 -0.000000vn -0.000000 1.000000 -0.000000vn -0.000000 1.000000 -0.000000vn -0.000000 1.000000 -0.000000vn -0.000000 1.000000 -0.000000vn -0.447214 0.894427 -0.000000vn -0.000000 0.894427 0.447214vn -0.000000 1.000000 -0.000000vn -0.000000 1.000000 -0.000000vn 0.989071 0.131876 0.065938vn -0.000000 1.000000 -0.000000vn -0.000000 1.000000 -0.000000vn -0.000000 1.000000 -0.000000vn -0.000000 1.000000 -0.000000vn -0.989949 0.141421 -0.000000vn -0.070535 0.141069 0.987484vn -0.000000 1.000000 -0.000000vn 0.992278 0.124035 -0.000000vn -0.000000 0.124035 -0.992278vn -0.000000 1.000000 -0.000000vn -0.000000 1.000000 -0.000000vn -0.000000 -1.000000 -0.000000vn 0.000000 -1.000000 -0.000000vn -0.991228 0.132164 -0.000000vn -0.000000 0.132164 0.991228vn -0.000000 1.000000 -0.000000vn -0.000000 1.000000 -0.000000vn -0.000000 1.000000 -0.000000vn -0.000000 1.000000 -0.000000vn -0.000000 1.000000 -0.000000vn -0.000000 1.000000 -0.000000vn -0.000000 1.000000 -0.000000vn -0.000000 1.000000 -0.000000vn -0.000000 1.000000 -0.000000vn -0.065938 0.131876 0.989071vn -0.000000 0.124035 0.992278vn 0.061898 0.123797 0.990375vn 0.679100 0.097014 0.727607vn -0.000000 0.141421 -0.989949vn -0.000000 1.000000 -0.000000vn -0.000000 1.000000 -0.000000vn -0.000000 1.000000 -0.000000vn -0.000000 1.000000 -0.000000vn -0.991228 0.132164 -0.000000vn -0.000000 1.000000 -0.000000vn -0.000000 1.000000 -0.000000vn 0.992278 0.124035 -0.000000vn -0.000000 0.124035 -0.992278vn -0.000000 0.124035 -0.992278vn -0.000000 0.132164 -0.991228vn -0.000000 -1.000000 -0.000000vn 0.000000 -1.000000 -0.000000vn -0.991228 0.132164 -0.000000vn -0.000000 0.132164 0.991228vn -0.000000 1.000000 -0.000000vn -0.000000 1.000000 -0.000000vn -0.000000 1.000000 -0.000000vn -0.000000 1.000000 -0.000000vn -0.000000 1.000000 -0.000000vn -0.000000 1.000000 -0.000000vn -0.000000 1.000000 -0.000000vn 0.703985 0.093865 0.703985vn 0.000000 -1.000000 -0.000000vn -0.991228 0.132164 -0.000000vn 0.679100 0.097014 0.727607vn -0.000000 0.894427 0.447214vn -0.000000 0.894427 0.447214vn -0.000000 1.000000 -0.000000vn -0.000000 1.000000 -0.000000vn -0.991228 0.132164 -0.000000vn -0.000000 0.132164 0.991228vn -0.000000 0.132164 0.991228vn -0.000000 1.000000 -0.000000vn -0.000000 0.132164 0.991228vn 0.408248 0.816497 0.408248vn 0.991228 0.132164 -0.000000vn -0.000000 0.132164 -0.991228vn -0.000000 -1.000000 -0.000000vn 0.000000 -1.000000 -0.000000vn -0.991228 0.132164 -0.000000vn -0.000000 0.132164 0.991228vn -0.000000 1.000000 -0.000000vn -0.000000 1.000000 -0.000000vn -0.000000 1.000000 -0.000000vn -0.000000 1.000000 -0.000000vn -0.000000 1.000000 -0.000000vn 0.703985 0.093865 0.703985vn 0.000000 -1.000000 -0.000000vn -0.447214 0.894427 -0.000000vn -0.000000 0.894427 0.447214vn -0.000000 1.000000 -0.000000vn -0.000000 1.000000 -0.000000vn -0.000000 1.000000 -0.000000vn -0.991228 0.132164 -0.000000vn 0.703985 0.093865 0.703985vn -0.989949 0.141421 -0.000000vn -0.000000 1.000000 -0.000000vn -0.000000 1.000000 -0.000000vn 0.991228 0.132164 -0.000000vn -0.000000 0.132164 -0.991228vn -0.000000 1.000000 -0.000000vn -0.000000 -1.000000 -0.000000vn -0.000000 1.000000 -0.000000vn -0.991228 0.132164 -0.000000vn -0.000000 1.000000 -0.000000vn -0.000000 1.000000 -0.000000vn -0.000000 0.132164 0.991228vn -0.000000 1.000000 -0.000000vn 0.703985 0.093865 0.703985vn 0.000000 -1.000000 -0.000000vn -0.447214 0.894427 -0.000000vn -0.000000 0.894427 0.447214vn -0.000000 1.000000 -0.000000vn -0.000000 1.000000 -0.000000vn -0.000000 1.000000 -0.000000vn -0.000000 1.000000 -0.000000vn -0.989949 0.141421 -0.000000vn -0.000000 0.141421 0.989949vn -0.000000 0.141421 0.989949vn -0.000000 1.000000 -0.000000vn 0.991228 0.132164 -0.000000vn -0.000000 0.132164 -0.991228vn -0.000000 0.132164 -0.991228vn 0.000000 -1.000000 -0.000000vn -0.991228 0.132164 -0.000000vn -0.000000 0.132164 0.991228vn 0.703985 0.093865 0.703985vn -0.991228 0.132164 -0.000000vn 0.703985 0.093865 0.703985vn -0.000000 1.000000 -0.000000vn -0.447214 0.894427 -0.000000vn -0.000000 0.141421 -0.989949vn -0.000000 0.141421 -0.989949vn -0.000000 1.000000 -0.000000vn -0.000000 0.141421 -0.989949vn -0.000000 1.000000 -0.000000vn -0.000000 1.000000 -0.000000vn -0.989949 0.141421 -0.000000vn -0.000000 1.000000 -0.000000vn -0.000000 1.000000 -0.000000vn -0.000000 1.000000 -0.000000vn 0.991228 0.132164 -0.000000vn 0.000000 -1.000000 -0.000000vn -0.991228 0.132164 -0.000000vn -0.000000 0.132164 0.991228vn 0.679100 0.097014 0.727607vn -0.987484 0.141069 0.070535vn 0.989949 0.141421 -0.000000vn -0.000000 0.141421 -0.989949vn -0.000000 1.000000 -0.000000vn -0.989949 0.141421 -0.000000vn -0.000000 0.141421 0.989949vn -0.000000 1.000000 -0.000000vn -0.000000 1.000000 -0.000000vn 0.703985 0.093865 0.703985vn 0.000000 -1.000000 -0.000000vn -0.991228 0.132164 -0.000000vn -0.000000 0.132164 0.991228vn 0.989949 0.141421 -0.000000vn -0.000000 0.141421 -0.989949vn -0.000000 1.000000 -0.000000vn -0.989949 0.141421 -0.000000vn -0.000000 0.132164 0.991228vn 0.703985 0.093865 0.703985vn 0.000000 -1.000000 -0.000000vn -0.991228 0.132164 -0.000000vn -0.000000 0.132164 0.991228vn 0.679100 0.097014 0.727607vn -0.000000 0.894427 0.447214vn 0.408248 0.816497 0.408248vn -0.000000 -1.000000 0.000000f 13 17 18
f 13 14 19 18
f 14 15 20 19
f 15 20 21
f 17 18 24 23
f 18 19 25 24
f 19 20 26 25
f 20 21 27 26
f 23 29 30
f 23 24 31 30
f 24 25 32 31
f 25 26 33 32
f 26 27 34 33
f 27 34 35
f 29 37 38
f 29 30 39 38
f 30 31 40 39
f 31 32 41 40
f 32 33 42 41
f 33 34 43 42
f 34 35 44 43
f 35 44 45
f 37 47 48
f 37 38 49 48
f 38 39 50 49
f 39 40 51 50
f 40 41 52 51
f 41 42 53 52
f 42 43 54 53
f 43 44 55 54
f 44 45 56 55
f 47 48 59 58
f 48 49 60 59
f 49 50 61 60
f 50 51 62 61
f 51 52 63 62
f 52 53 64 63
f 53 54 65 64
f 54 55 66 65
f 55 56 67 66
f 58 59 70 69
f 59 60 71 70
f 60 61 72 71
f 61 62 73 72
f 62 63 74 73
f 63 64 75 74
f 64 65 76 75
f 65 66 77 76
f 66 77 67
f 69 70 80 79
f 70 71 81 80
f 71 72 82 81
f 72 73 83 82
f 73 74 84 83
f 74 75 85 84
f 75 76 86 85
f 76 77 87 86
f 79 80 90 89
f 80 81 91 90
f 81 82 92 91
f 82 83 93 92
f 83 84 94 93
f 84 85 95 94
f 85 86 96 95
f 86 87 97 96
f 87 97 98
f 89 90 101 100
f 90 91 102 101
f 91 92 103 102
f 92 93 104 103
f 93 94 105 104
f 94 95 106 105
f 95 96 107 106
f 96 97 108 107
f 97 98 109 108
f 98 109 110
f 100 113 114
f 100 101 115 114
f 101 102 116 115
f 102 103 117 116
f 103 104 118 117
f 104 105 119 118
f 105 106 120 119
f 106 107 121 120
f 107 108 122 121
f 108 109 123 122
f 109 110 124 123
f 112 126 127
f 112 113 128 127
f 113 114 129 128
f 114 115 130 129
f 115 116 131 130
f 116 117 132 131
f 117 118 133 132
f 118 119 134 133
f 119 120 135 134
f 120 121 136 135
f 121 122 137 136
f 122 123 138 137
f 123 138 124
f 126 140 141
f 126 127 142 141
f 127 128 143 142
f 128 129 144 143
f 129 130 145 144
f 130 131 146 145
f 131 132 147 146
f 132 133 148 147
f 133 134 149 148
f 134 135 150 149
f 135 136 151 150
f 136 137 152 151
f 137 138 153 152
f 140 155 156
f 140 141 157 156
f 141 142 158 157
f 142 143 159 158
f 143 144 160 159
f 144 145 161 160
f 145 146 162 161
f 146 147 163 162
f 147 148 164 163
f 148 149 165 164
f 149 150 166 165
f 150 151 167 166
f 151 152 168 167
f 152 153 169 168
f 155 171 172
f 155 156 173 172
f 156 157 174 173
f 157 158 175 174
f 158 159 176 175
f 159 160 177 176
f 160 161 178 177
f 161 162 179 178
f 162 163 180 179
f 163 164 181 180
f 164 165 182 181
f 165 166 183 182
f 166 167 184 183
f 167 168 185 184
f 168 169 186 185
f 169 186 187
f 171 189 190
f 171 172 191 190
f 172 173 192 191
f 173 174 193 192
f 174 175 194 193
f 175 176 195 194
f 176 177 196 195
f 177 178 197 196
f 178 179 198 197
f 179 180 199 198
f 180 181 200 199
f 181 182 201 200
f 182 183 202 201
f 183 184 203 202
f 184 185 204 203
f 185 186 205 204
f 186 187 206 205
f 189 209 210
f 189 190 211 210
f 190 191 212 211
f 191 192 213 212
f 192 193 214 213
f 193 194 215 214
f 194 195 216 215
f 195 196 217 216
f 196 197 218 217
f 197 198 219 218
f 198 199 220 219
f 199 200 221 220
f 200 201 222 221
f 201 202 223 222
f 202 203 224 223
f 203 204 225 224
f 204 205 226 225
f 205 226 206
f 208 228 229
f 208 209 230 229
f 209 210 231 230
f 210 211 232 231
f 211 212 233 232
f 212 213 234 233
f 213 214 235 234
f 214 215 236 235
f 215 216 237 236
f 216 217 238 237
f 217 218 239 238
f 218 219 240 239
f 219 220 241 240
f 220 221 242 241
f 221 222 243 242
f 222 223 244 243
f 223 224 245 244
f 224 225 246 245
f 225 246 226
f 228 229 249 248
f 229 230 250 249
f 230 231 251 250
f 231 232 252 251
f 232 233 253 252
f 233 234 254 253
f 234 235 255 254
f 235 236 256 255
f 236 237 257 256
f 237 238 258 257
f 238 239 259 258
f 239 240 260 259
f 240 241 261 260
f 241 242 262 261
f 242 243 263 262
f 243 244 264 263
f 244 245 265 264
f 245 246 266 265
f 248 270 271
f 248 249 272 271
f 249 250 273 272
f 250 251 274 273
f 251 252 275 274
f 252 253 276 275
f 253 254 277 276
f 254 255 278 277
f 255 256 279 278
f 256 257 280 279
f 257 258 281 280
f 258 259 282 281
f 259 260 283 282
f 260 261 284 283
f 261 262 285 284
f 262 263 286 285
f 263 264 287 286
f 264 265 288 287
f 265 266 289 288
f 268 291 292
f 268 269 293 292
f 269 270 294 293
f 270 271 295 294
f 271 272 296 295
f 272 273 297 296
f 273 274 298 297
f 274 275 299 298
f 275 276 300 299
f 276 277 301 300
f 277 278 302 301
f 278 279 303 302
f 279 280 304 303
f 280 281 305 304
f 281 282 306 305
f 282 283 307 306
f 283 284 308 307
f 284 285 309 308
f 285 286 310 309
f 286 287 311 310
f 287 288 312 311
f 288 289 313 312
f 289 313 314
f 291 317 318
f 291 292 319 318
f 292 293 320 319
f 293 294 321 320
f 294 295 322 321
f 295 296 323 322
f 296 297 324 323
f 297 298 325 324
f 298 299 326 325
f 299 300 327 326
f 300 301 328 327
f 301 302 329 328
f 302 303 330 329
f 303 304 331 330
f 304 305 332 331
f 305 306 333 332
f 306 307 334 333
f 307 308 335 334
f 308 309 336 335
f 309 310 337 336
f 310 311 338 337
f 311 312 339 338
f 312 313 340 339
f 313 314 341 340
f 314 315 342 341
f 315 342 343
f 317 318 347 346
f 318 319 348 347
f 319 320 349 348
f 320 321 350 349
f 321 322 351 350
f 322 323 352 351
f 323 324 353 352
f 324 325 354 353
f 325 326 355 354
f 326 327 356 355
f 327 328 357 356
f 328 329 358 357
f 329 330 359 358
f 330 331 360 359
f 331 332 361 360
f 332 333 362 361
f 333 334 363 362
f 334 335 364 363
f 335 336 365 364
f 336 337 366 365
f 337 338 367 366
f 338 339 368 367
f 339 340 369 368
f 340 341 370 369
f 341 342 371 370
f 342 343 372 371
f 343 344 373 372
f 344 373 374
f 346 376 347
f 347 348 377 376
f 348 349 378 377
f 349 350 379 378
f 350 351 380 379
f 351 352 381 380
f 352 353 382 381
f 353 354 383 382
f 354 355 384 383
f 355 356 385 384
f 356 357 386 385
f 357 358 387 386
f 358 359 388 387
f 359 360 389 388
f 360 361 390 389
f 361 362 391 390
f 362 363 392 391
f 363 364 393 392
f 364 365 394 393
f 365 366 395 394
f 366 367 396 395
f 367 368 397 396
f 368 369 398 397
f 369 370 399 398
f 370 371 400 399
f 371 372 401 400
f 372 373 402 401
f 373 374 403 402
f 374 403 404
f 376 406 377
f 377 378 407 406
f 378 379 408 407
f 379 380 409 408
f 380 381 410 409
f 381 382 411 410
f 382 383 412 411
f 383 384 413 412
f 384 385 414 413
f 385 386 415 414
f 386 415 387
f 389 416 390
f 390 391 417 416
f 391 392 418 417
f 392 393 419 418
f 393 394 420 419
f 394 395 421 420
f 395 396 422 421
f 396 397 423 422
f 397 398 424 423
f 398 399 425 424
f 399 400 426 425
f 400 401 427 426
f 401 402 428 427
f 402 403 429 428
f 403 404 430 429
f 404 430 431
f 406 434 407
f 407 408 435 434
f 408 409 436 435
f 409 410 437 436
f 410 411 438 437
f 411 412 439 438
f 412 413 440 439
f 413 414 441 440
f 414 441 415
f 418 442 419
f 419 420 443 442
f 420 421 444 443
f 421 422 445 444
f 422 423 446 445
f 423 424 447 446
f 424 425 448 447
f 425 426 449 448
f 426 427 450 449
f 427 428 451 450
f 428 429 452 451
f 429 430 453 452
f 430 431 454 453
f 431 432 455 454
f 432 455 456
f 434 435 459 458
f 435 436 460 459
f 436 437 461 460
f 437 438 462 461
f 438 439 463 462
f 439 440 464 463
f 440 464 441
f 442 465 443
f 443 444 466 465
f 444 445 467 466
f 445 446 468 467
f 446 447 469 468
f 447 448 470 469
f 448 449 471 470
f 449 450 472 471
f 450 451 473 472
f 451 452 474 473
f 452 453 475 474
f 453 454 476 475
f 454 455 477 476
f 455 456 478 477
f 458 480 459
f 459 460 481 480
f 460 461 482 481
f 461 462 483 482
f 462 463 484 483
f 463 484 464
f 465 466 486 485
f 466 467 487 486
f 467 468 488 487
f 468 469 489 488
f 469 470 490 489
f 470 471 491 490
f 471 472 492 491
f 472 473 493 492
f 473 474 494 493
f 474 475 495 494
f 475 476 496 495
f 476 477 497 496
f 477 478 498 497
f 485 500 486
f 486 487 501 500
f 487 488 502 501
f 488 489 503 502
f 489 490 504 503
f 490 491 505 504
f 491 492 506 505
f 492 493 507 506
f 493 494 508 507
f 494 495 509 508
f 495 496 510 509
f 496 497 511 510
f 497 511 498
f 502 513 503
f 503 504 514 513
f 504 505 515 514
f 505 506 516 515
f 506 507 517 516
f 507 508 518 517
f 508 509 519 518
f 509 510 520 519
f 510 520 511
f 513 522 514
f 514 515 523 522
f 515 516 524 523
f 516 517 525 524
f 517 518 526 525
f 518 526 519
f 532 581 582
