# Terrain generated from heightmap.txt
v 49.0000 0.0000 0.0000
v 49.0000 0.0000 1.0000
v 49.0000 0.0000 2.0000
v 49.0000 0.0000 3.0000
v 49.0000 0.0000 4.0000
v 49.0000 0.0000 5.0000
v 49.0000 0.0000 6.0000
v 49.0000 0.0000 7.0000
v 49.0000 0.0000 8.0000
v 49.0000 0.0000 9.0000
v 49.0000 0.0000 10.0000
v 49.0000 0.0000 11.0000
v 49.0000 0.0000 12.0000
v 49.0000 0.0000 13.0000
v 49.0000 0.0000 14.0000
v 24.0000 0.0000 15.0000
v 25.0000 0.0000 15.0000
v 26.0000 0.0000 15.0000
v 27.0000 0.0000 15.0000
v 49.0000 0.0000 15.0000
v 23.0000 0.0000 16.0000
v 24.0000 0.0000 16.0000
v 25.0000 0.0000 16.0000
v 26.0000 0.0000 16.0000
v 27.0000 0.0000 16.0000
v 28.0000 0.0000 16.0000
v 49.0000 0.0000 16.0000
v 22.0000 0.0000 17.0000
v 23.0000 0.0000 17.0000
v 24.0000 0.0000 17.0000
v 25.0000 8.0000 17.0000
v 26.0000 8.0000 17.0000
v 27.0000 7.5000 17.0000
v 28.0000 0.0000 17.0000
v 49.0000 0.0000 17.0000
v 22.0000 0.0000 18.0000
v 23.0000 0.0000 18.0000
v 24.0000 8.0000 18.0000
v 25.0000 8.0000 18.0000
v 26.0000 7.5000 18.0000
v 27.0000 7.5000 18.0000
v 28.0000 0.0000 18.0000
v 49.0000 0.0000 18.0000
v 22.0000 0.0000 19.0000
v 23.0000 0.0000 19.0000
v 24.0000 0.0000 19.0000
v 25.0000 8.0000 19.0000
v 26.0000 8.0000 19.0000
v 27.0000 0.0000 19.0000
v 49.0000 0.0000 19.0000
v 22.0000 0.0000 20.0000
v 23.0000 0.0000 20.0000
v 24.0000 8.0000 20.0000
v 25.0000 8.0000 20.0000
v 26.0000 0.0000 20.0000
v 27.0000 0.0000 20.0000
v 49.0000 0.0000 20.0000
v 23.0000 0.0000 21.0000
v 24.0000 0.0000 21.0000
v 25.0000 7.5000 21.0000
v 26.0000 7.5000 21.0000
v 27.0000 0.0000 21.0000
v 28.0000 0.0000 21.0000
v 49.0000 0.0000 21.0000
v 23.0000 0.0000 22.0000
v 24.0000 0.0000 22.0000
v 25.0000 0.0000 22.0000
v 26.0000 7.5000 22.0000
v 27.0000 7.5000 22.0000
v 28.0000 0.0000 22.0000
v 29.0000 0.0000 22.0000
v 49.0000 0.0000 22.0000
v 22.0000 0.0000 23.0000
v 23.0000 0.0000 23.0000
v 24.0000 0.0000 23.0000
v 25.0000 7.5000 23.0000
v 26.0000 7.5000 23.0000
v 27.0000 7.5000 23.0000
v 28.0000 7.5000 23.0000
v 29.0000 0.0000 23.0000
v 49.0000 0.0000 23.0000
v 21.0000 0.0000 24.0000
v 22.0000 0.0000 24.0000
v 23.0000 0.0000 24.0000
v 24.0000 7.5000 24.0000
v 25.0000 7.5000 24.0000
v 26.0000 7.5000 24.0000
v 27.0000 7.5000 24.0000
v 28.0000 0.0000 24.0000
v 49.0000 0.0000 24.0000
v 19.0000 0.0000 25.0000
v 20.0000 0.0000 25.0000
v 21.0000 0.0000 25.0000
v 22.0000 0.0000 25.0000
v 23.0000 7.5000 25.0000
v 24.0000 7.5000 25.0000
v 25.0000 7.5000 25.0000
v 26.0000 8.0000 25.0000
v 27.0000 0.0000 25.0000
v 28.0000 0.0000 25.0000
v 29.0000 0.0000 25.0000
v 49.0000 0.0000 25.0000
v 18.0000 0.0000 26.0000
v 19.0000 0.0000 26.0000
v 20.0000 0.0000 26.0000
v 21.0000 0.0000 26.0000
v 22.0000 7.5000 26.0000
v 23.0000 7.5000 26.0000
v 24.0000 8.0000 26.0000
v 25.0000 8.0000 26.0000
v 26.0000 8.0000 26.0000
v 27.0000 8.0000 26.0000
v 28.0000 8.0000 26.0000
v 29.0000 0.0000 26.0000
v 49.0000 0.0000 26.0000
v 17.0000 0.0000 27.0000
v 18.0000 0.0000 27.0000
v 19.0000 0.0000 27.0000
v 20.0000 7.5000 27.0000
v 21.0000 7.5000 27.0000
v 22.0000 7.5000 27.0000
v 23.0000 7.5000 27.0000
v 24.0000 8.0000 27.0000
v 25.0000 8.0000 27.0000
v 26.0000 8.0000 27.0000
v 27.0000 8.0000 27.0000
v 28.0000 8.0000 27.0000
v 29.0000 0.0000 27.0000
v 30.0000 0.0000 27.0000
v 49.0000 0.0000 27.0000
v 16.0000 0.0000 28.0000
v 17.0000 0.0000 28.0000
v 18.0000 0.0000 28.0000
v 19.0000 7.5000 28.0000
v 20.0000 7.5000 28.0000
v 21.0000 7.5000 28.0000
v 22.0000 7.5000 28.0000
v 23.0000 8.0000 28.0000
v 24.0000 8.0000 28.0000
v 25.0000 8.0000 28.0000
v 26.0000 8.0000 28.0000
v 27.0000 8.0000 28.0000
v 28.0000 8.0000 28.0000
v 29.0000 8.0000 28.0000
v 30.0000 0.0000 28.0000
v 49.0000 0.0000 28.0000
v 14.0000 0.0000 29.0000
v 15.0000 0.0000 29.0000
v 16.0000 0.0000 29.0000
v 17.0000 0.0000 29.0000
v 18.0000 7.5000 29.0000
v 19.0000 7.5000 29.0000
v 20.0000 8.0000 29.0000
v 21.0000 7.5000 29.0000
v 22.0000 7.5000 29.0000
v 23.0000 7.5000 29.0000
v 24.0000 7.5000 29.0000
v 25.0000 8.0000 29.0000
v 26.0000 8.0000 29.0000
v 27.0000 8.0000 29.0000
v 28.0000 8.0000 29.0000
v 29.0000 0.0000 29.0000
v 49.0000 0.0000 29.0000
v 13.0000 0.0000 30.0000
v 14.0000 0.0000 30.0000
v 15.0000 0.0000 30.0000
v 16.0000 0.0000 30.0000
v 17.0000 7.5000 30.0000
v 18.0000 7.5000 30.0000
v 19.0000 8.0000 30.0000
v 20.0000 8.0000 30.0000
v 21.0000 7.5000 30.0000
v 22.0000 7.5000 30.0000
v 23.0000 7.5000 30.0000
v 24.0000 7.5000 30.0000
v 25.0000 8.0000 30.0000
v 26.0000 8.0000 30.0000
v 27.0000 8.0000 30.0000
v 28.0000 0.0000 30.0000
v 49.0000 0.0000 30.0000
v 13.0000 0.0000 31.0000
v 14.0000 0.0000 31.0000
v 15.0000 8.0000 31.0000
v 16.0000 7.5000 31.0000
v 17.0000 7.5000 31.0000
v 18.0000 8.0000 31.0000
v 19.0000 8.0000 31.0000
v 20.0000 8.0000 31.0000
v 21.0000 8.0000 31.0000
v 22.0000 7.5000 31.0000
v 23.0000 7.5000 31.0000
v 24.0000 7.5000 31.0000
v 25.0000 7.5000 31.0000
v 26.0000 7.5000 31.0000
v 27.0000 0.0000 31.0000
v 49.0000 0.0000 31.0000
v 12.0000 0.0000 32.0000
v 13.0000 0.0000 32.0000
v 14.0000 0.0000 32.0000
v 15.0000 7.5000 32.0000
v 16.0000 7.5000 32.0000
v 17.0000 7.5000 32.0000
v 18.0000 7.5000 32.0000
v 19.0000 8.0000 32.0000
v 20.0000 8.0000 32.0000
v 21.0000 8.0000 32.0000
v 22.0000 8.0000 32.0000
v 23.0000 7.5000 32.0000
v 24.0000 7.5000 32.0000
v 25.0000 7.5000 32.0000
v 26.0000 0.0000 32.0000
v 27.0000 0.0000 32.0000
v 28.0000 0.0000 32.0000
v 49.0000 0.0000 32.0000
v 11.0000 0.0000 33.0000
v 12.0000 0.0000 33.0000
v 13.0000 0.0000 33.0000
v 14.0000 7.5000 33.0000
v 15.0000 7.5000 33.0000
v 16.0000 7.5000 33.0000
v 17.0000 8.0000 33.0000
v 18.0000 8.0000 33.0000
v 19.0000 8.0000 33.0000
v 20.0000 8.0000 33.0000
v 21.0000 8.0000 33.0000
v 22.0000 8.0000 33.0000
v 23.0000 8.0000 33.0000
v 24.0000 7.5000 33.0000
v 25.0000 7.5000 33.0000
v 26.0000 0.0000 33.0000
v 27.0000 0.0000 33.0000
v 28.0000 0.0000 33.0000
v 29.0000 0.0000 33.0000
v 49.0000 0.0000 33.0000
v 10.0000 0.0000 34.0000
v 11.0000 0.0000 34.0000
v 12.0000 0.0000 34.0000
v 13.0000 7.5000 34.0000
v 14.0000 7.5000 34.0000
v 15.0000 7.5000 34.0000
v 16.0000 7.5000 34.0000
v 17.0000 7.5000 34.0000
v 18.0000 8.0000 34.0000
v 19.0000 8.0000 34.0000
v 20.0000 8.0000 34.0000
v 21.0000 8.0000 34.0000
v 22.0000 8.0000 34.0000
v 23.0000 7.5000 34.0000
v 24.0000 7.5000 34.0000
v 25.0000 7.5000 34.0000
v 26.0000 7.5000 34.0000
v 27.0000 0.0000 34.0000
v 28.0000 8.0000 34.0000
v 29.0000 0.0000 34.0000
v 30.0000 0.0000 34.0000
v 31.0000 0.0000 34.0000
v 49.0000 0.0000 34.0000
v 9.0000 0.0000 35.0000
v 10.0000 0.0000 35.0000
v 11.0000 0.0000 35.0000
v 12.0000 7.5000 35.0000
v 13.0000 7.5000 35.0000
v 14.0000 7.5000 35.0000
v 15.0000 7.5000 35.0000
v 16.0000 7.5000 35.0000
v 17.0000 0.0000 35.0000
v 18.0000 0.0000 35.0000
v 19.0000 8.0000 35.0000
v 20.0000 8.0000 35.0000
v 21.0000 0.0000 35.0000
v 22.0000 0.0000 35.0000
v 23.0000 0.0000 35.0000
v 24.0000 0.0000 35.0000
v 25.0000 7.5000 35.0000
v 26.0000 7.5000 35.0000
v 27.0000 7.5000 35.0000
v 28.0000 8.0000 35.0000
v 29.0000 8.0000 35.0000
v 30.0000 0.0000 35.0000
v 31.0000 0.0000 35.0000
v 32.0000 0.0000 35.0000
v 49.0000 0.0000 35.0000
v 9.0000 0.0000 36.0000
v 10.0000 0.0000 36.0000
v 11.0000 7.5000 36.0000
v 12.0000 7.5000 36.0000
v 13.0000 7.5000 36.0000
v 14.0000 7.5000 36.0000
v 15.0000 7.5000 36.0000
v 16.0000 0.0000 36.0000
v 18.0000 0.0000 36.0000
v 19.0000 0.0000 36.0000
v 20.0000 0.0000 36.0000
v 23.0000 0.0000 36.0000
v 24.0000 0.0000 36.0000
v 25.0000 0.0000 36.0000
v 26.0000 8.0000 36.0000
v 27.0000 8.0000 36.0000
v 28.0000 8.0000 36.0000
v 29.0000 8.0000 36.0000
v 30.0000 8.0000 36.0000
v 31.0000 8.0000 36.0000
v 32.0000 0.0000 36.0000
v 33.0000 0.0000 36.0000
v 49.0000 0.0000 36.0000
v 10.0000 0.0000 37.0000
v 11.0000 0.0000 37.0000
v 12.0000 7.5000 37.0000
v 13.0000 0.0000 37.0000
v 14.0000 7.5000 37.0000
v 15.0000 0.0000 37.0000
v 23.0000 0.0000 37.0000
v 24.0000 0.0000 37.0000
v 25.0000 8.0000 37.0000
v 26.0000 8.0000 37.0000
v 27.0000 8.0000 37.0000
v 28.0000 8.0000 37.0000
v 29.0000 8.0000 37.0000
v 30.0000 8.0000 37.0000
v 31.0000 7.5000 37.0000
v 32.0000 0.0000 37.0000
v 33.0000 0.0000 37.0000
v 34.0000 0.0000 37.0000
v 49.0000 0.0000 37.0000
v 11.0000 0.0000 38.0000
v 12.0000 0.0000 38.0000
v 13.0000 0.0000 38.0000
v 14.0000 0.0000 38.0000
v 24.0000 0.0000 38.0000
v 25.0000 0.0000 38.0000
v 26.0000 8.0000 38.0000
v 27.0000 8.0000 38.0000
v 28.0000 8.0000 38.0000
v 29.0000 8.0000 38.0000
v 30.0000 8.0000 38.0000
v 31.0000 8.0000 38.0000
v 32.0000 7.5000 38.0000
v 33.0000 7.5000 38.0000
v 34.0000 0.0000 38.0000
v 35.0000 0.0000 38.0000
v 49.0000 0.0000 38.0000
v 25.0000 0.0000 39.0000
v 26.0000 0.0000 39.0000
v 27.0000 0.0000 39.0000
v 28.0000 0.0000 39.0000
v 29.0000 0.0000 39.0000
v 30.0000 7.5000 39.0000
v 31.0000 7.5000 39.0000
v 32.0000 7.5000 39.0000
v 33.0000 7.5000 39.0000
v 34.0000 7.5000 39.0000
v 35.0000 0.0000 39.0000
v 49.0000 0.0000 39.0000
v 29.0000 0.0000 40.0000
v 30.0000 0.0000 40.0000
v 31.0000 7.5000 40.0000
v 32.0000 7.5000 40.0000
v 33.0000 7.5000 40.0000
v 34.0000 7.5000 40.0000
v 35.0000 0.0000 40.0000
v 49.0000 0.0000 40.0000
v 30.0000 0.0000 41.0000
v 31.0000 0.0000 41.0000
v 32.0000 0.0000 41.0000
v 33.0000 0.0000 41.0000
v 34.0000 0.0000 41.0000
v 49.0000 0.0000 41.0000
v 49.0000 0.0000 42.0000
v 49.0000 0.0000 43.0000
v 49.0000 0.0000 44.0000
v 49.0000 0.0000 45.0000
v 49.0000 0.0000 46.0000
v 49.0000 0.0000 47.0000
v 49.0000 0.0000 48.0000
v 0.0000 0.0000 49.0000
v 1.0000 0.0000 49.0000
v 2.0000 0.0000 49.0000
v 3.0000 0.0000 49.0000
v 4.0000 0.0000 49.0000
v 5.0000 0.0000 49.0000
v 6.0000 0.0000 49.0000
v 7.0000 0.0000 49.0000
v 8.0000 0.0000 49.0000
v 9.0000 0.0000 49.0000
v 10.0000 0.0000 49.0000
v 11.0000 0.0000 49.0000
v 12.0000 0.0000 49.0000
v 13.0000 0.0000 49.0000
v 14.0000 0.0000 49.0000
v 15.0000 0.0000 49.0000
v 16.0000 0.0000 49.0000
v 17.0000 0.0000 49.0000
v 18.0000 0.0000 49.0000
v 19.0000 0.0000 49.0000
v 20.0000 0.0000 49.0000
v 21.0000 0.0000 49.0000
v 22.0000 0.0000 49.0000
v 23.0000 0.0000 49.0000
v 24.0000 0.0000 49.0000
v 25.0000 0.0000 49.0000
v 26.0000 0.0000 49.0000
v 27.0000 0.0000 49.0000
v 28.0000 0.0000 49.0000
v 29.0000 0.0000 49.0000
v 30.0000 0.0000 49.0000
v 31.0000 0.0000 49.0000
v 32.0000 0.0000 49.0000
v 33.0000 0.0000 49.0000
v 34.0000 0.0000 49.0000
v 35.0000 0.0000 49.0000
v 36.0000 0.0000 49.0000
v 37.0000 0.0000 49.0000
v 38.0000 0.0000 49.0000
v 39.0000 0.0000 49.0000
v 40.0000 0.0000 49.0000
v 41.0000 0.0000 49.0000
v 42.0000 0.0000 49.0000
v 43.0000 0.0000 49.0000
v 44.0000 0.0000 49.0000
v 45.0000 0.0000 49.0000
v 46.0000 0.0000 49.0000
v 47.0000 0.0000 49.0000
v 48.0000 0.0000 49.0000
v 49.0000 0.0000 49.0000
f 16 21 22
f 16 17 23 22
f 17 18 24 23
f 18 19 25 24
f 19 25 26
f 21 28 29
f 21 22 30 29
f 22 23 31 30
f 23 24 32 31
f 24 25 33 32
f 25 26 34 33
f 28 29 37 36
f 29 30 38 37
f 30 31 39 38
f 31 32 40 39
f 32 33 41 40
f 33 34 42 41
f 36 37 45 44
f 37 38 46 45
f 38 39 47 46
f 39 40 48 47
f 40 41 49 48
f 41 49 42
f 44 45 52 51
f 45 46 53 52
f 46 47 54 53
f 47 48 55 54
f 48 49 56 55
f 51 58 52
f 52 53 59 58
f 53 54 60 59
f 54 55 61 60
f 55 56 62 61
f 56 62 63
f 58 59 66 65
f 59 60 67 66
f 60 61 68 67
f 61 62 69 68
f 62 63 70 69
f 63 70 71
f 65 73 74
f 65 66 75 74
f 66 67 76 75
f 67 68 77 76
f 68 69 78 77
f 69 70 79 78
f 70 71 80 79
f 73 82 83
f 73 74 84 83
f 74 75 85 84
f 75 76 86 85
f 76 77 87 86
f 77 78 88 87
f 78 79 89 88
f 79 89 80
f 82 92 93
f 82 83 94 93
f 83 84 95 94
f 84 85 96 95
f 85 86 97 96
f 86 87 98 97
f 87 88 99 98
f 88 89 100 99
f 89 100 101
f 91 103 104
f 91 92 105 104
f 92 93 106 105
f 93 94 107 106
f 94 95 108 107
f 95 96 109 108
f 96 97 110 109
f 97 98 111 110
f 98 99 112 111
f 99 100 113 112
f 100 101 114 113
f 103 116 117
f 103 104 118 117
f 104 105 119 118
f 105 106 120 119
f 106 107 121 120
f 107 108 122 121
f 108 109 123 122
f 109 110 124 123
f 110 111 125 124
f 111 112 126 125
f 112 113 127 126
f 113 114 128 127
f 114 128 129
f 116 131 132
f 116 117 133 132
f 117 118 134 133
f 118 119 135 134
f 119 120 136 135
f 120 121 137 136
f 121 122 138 137
f 122 123 139 138
f 123 124 140 139
f 124 125 141 140
f 125 126 142 141
f 126 127 143 142
f 127 128 144 143
f 128 129 145 144
f 131 148 149
f 131 132 150 149
f 132 133 151 150
f 133 134 152 151
f 134 135 153 152
f 135 136 154 153
f 136 137 155 154
f 137 138 156 155
f 138 139 157 156
f 139 140 158 157
f 140 141 159 158
f 141 142 160 159
f 142 143 161 160
f 143 144 162 161
f 144 162 145
f 147 164 165
f 147 148 166 165
f 148 149 167 166
f 149 150 168 167
f 150 151 169 168
f 151 152 170 169
f 152 153 171 170
f 153 154 172 171
f 154 155 173 172
f 155 156 174 173
f 156 157 175 174
f 157 158 176 175
f 158 159 177 176
f 159 160 178 177
f 160 161 179 178
f 161 179 162
f 164 165 182 181
f 165 166 183 182
f 166 167 184 183
f 167 168 185 184
f 168 169 186 185
f 169 170 187 186
f 170 171 188 187
f 171 172 189 188
f 172 173 190 189
f 173 174 191 190
f 174 175 192 191
f 175 176 193 192
f 176 177 194 193
f 177 178 195 194
f 178 195 179
f 181 197 198
f 181 182 199 198
f 182 183 200 199
f 183 184 201 200
f 184 185 202 201
f 185 186 203 202
f 186 187 204 203
f 187 188 205 204
f 188 189 206 205
f 189 190 207 206
f 190 191 208 207
f 191 192 209 208
f 192 193 210 209
f 193 194 211 210
f 194 195 212 211
f 195 212 213
f 197 215 216
f 197 198 217 216
f 198 199 218 217
f 199 200 219 218
f 200 201 220 219
f 201 202 221 220
f 202 203 222 221
f 203 204 223 222
f 204 205 224 223
f 205 206 225 224
f 206 207 226 225
f 207 208 227 226
f 208 209 228 227
f 209 210 229 228
f 210 211 230 229
f 211 212 231 230
f 212 213 232 231
f 213 232 233
f 215 235 236
f 215 216 237 236
f 216 217 238 237
f 217 218 239 238
f 218 219 240 239
f 219 220 241 240
f 220 221 242 241
f 221 222 243 242
f 222 223 244 243
f 223 224 245 244
f 224 225 246 245
f 225 226 247 246
f 226 227 248 247
f 227 228 249 248
f 228 229 250 249
f 229 230 251 250
f 230 231 252 251
f 231 232 253 252
f 232 233 254 253
f 233 254 255
f 235 258 259
f 235 236 260 259
f 236 237 261 260
f 237 238 262 261
f 238 239 263 262
f 239 240 264 263
f 240 241 265 264
f 241 242 266 265
f 242 243 267 266
f 243 244 268 267
f 244 245 269 268
f 245 246 270 269
f 246 247 271 270
f 247 248 272 271
f 248 249 273 272
f 249 250 274 273
f 250 251 275 274
f 251 252 276 275
f 252 253 277 276
f 253 254 278 277
f 254 255 279 278
f 255 256 280 279
f 256 280 281
f 258 259 284 283
f 259 260 285 284
f 260 261 286 285
f 261 262 287 286
f 262 263 288 287
f 263 264 289 288
f 264 265 290 289
f 265 290 266
f 266 291 267
f 267 268 292 291
f 268 269 293 292
f 269 293 270
f 271 294 272
f 272 273 295 294
f 273 274 296 295
f 274 275 297 296
f 275 276 298 297
f 276 277 299 298
f 277 278 300 299
f 278 279 301 300
f 279 280 302 301
f 280 281 303 302
f 281 303 304
f 283 306 284
f 284 285 307 306
f 285 286 308 307
f 286 287 309 308
f 287 288 310 309
f 288 289 311 310
f 289 311 290
f 294 295 313 312
f 295 296 314 313
f 296 297 315 314
f 297 298 316 315
f 298 299 317 316
f 299 300 318 317
f 300 301 319 318
f 301 302 320 319
f 302 303 321 320
f 303 304 322 321
f 304 322 323
f 306 325 307
f 307 308 326 325
f 308 309 327 326
f 309 310 328 327
f 310 328 311
f 312 329 313
f 313 314 330 329
f 314 315 331 330
f 315 316 332 331
f 316 317 333 332
f 317 318 334 333
f 318 319 335 334
f 319 320 336 335
f 320 321 337 336
f 321 322 338 337
f 322 323 339 338
f 323 339 340
f 329 342 330
f 330 331 343 342
f 331 332 344 343
f 332 333 345 344
f 333 334 346 345
f 334 335 347 346
f 335 336 348 347
f 336 337 349 348
f 337 338 350 349
f 338 339 351 350
f 339 340 352 351
f 345 354 346
f 346 347 355 354
f 347 348 356 355
f 348 349 357 356
f 349 350 358 357
f 350 351 359 358
f 351 352 360 359
f 354 362 355
f 355 356 363 362
f 356 357 364 363
f 357 358 365 364
f 358 359 366 365
f 359 366 360
f 374 423 424
