# Terrain generated from heightmap.txt
v 49.0000 0.0000 0.0000
v 49.0000 0.0000 1.0000
v 49.0000 0.0000 2.0000
v 49.0000 0.0000 3.0000
v 49.0000 0.0000 4.0000
v 49.0000 0.0000 5.0000
v 49.0000 0.0000 6.0000
v 49.0000 0.0000 7.0000
v 49.0000 0.0000 8.0000
v 25.0000 0.0000 9.0000
v 26.0000 0.0000 9.0000
v 49.0000 0.0000 9.0000
v 24.0000 0.0000 10.0000
v 25.0000 0.0000 10.0000
v 26.0000 0.0000 10.0000
v 27.0000 0.0000 10.0000
v 49.0000 0.0000 10.0000
v 23.0000 0.0000 11.0000
v 24.0000 0.0000 11.0000
v 25.0000 0.0000 11.0000
v 26.0000 7.5000 11.0000
v 27.0000 0.0000 11.0000
v 28.0000 0.0000 11.0000
v 29.0000 0.0000 11.0000
v 49.0000 0.0000 11.0000
v 23.0000 0.0000 12.0000
v 24.0000 0.0000 12.0000
v 25.0000 7.5000 12.0000
v 26.0000 7.5000 12.0000
v 27.0000 7.5000 12.0000
v 28.0000 0.0000 12.0000
v 29.0000 0.0000 12.0000
v 30.0000 0.0000 12.0000
v 49.0000 0.0000 12.0000
v 22.0000 0.0000 13.0000
v 23.0000 0.0000 13.0000
v 24.0000 0.0000 13.0000
v 25.0000 7.5000 13.0000
v 26.0000 7.5000 13.0000
v 27.0000 7.5000 13.0000
v 28.0000 7.5000 13.0000
v 29.0000 7.5000 13.0000
v 30.0000 0.0000 13.0000
v 31.0000 0.0000 13.0000
v 49.0000 0.0000 13.0000
v 22.0000 0.0000 14.0000
v 23.0000 0.0000 14.0000
v 24.0000 7.5000 14.0000
v 25.0000 7.5000 14.0000
v 26.0000 7.5000 14.0000
v 27.0000 7.5000 14.0000
v 28.0000 7.5000 14.0000
v 29.0000 7.5000 14.0000
v 30.0000 7.5000 14.0000
v 31.0000 0.0000 14.0000
v 32.0000 0.0000 14.0000
v 49.0000 0.0000 14.0000
v 22.0000 0.0000 15.0000
v 23.0000 0.0000 15.0000
v 24.0000 7.5000 15.0000
v 25.0000 7.5000 15.0000
v 26.0000 7.5000 15.0000
v 27.0000 7.5000 15.0000
v 28.0000 7.5000 15.0000
v 29.0000 7.5000 15.0000
v 30.0000 0.0000 15.0000
v 31.0000 7.5000 15.0000
v 32.0000 0.0000 15.0000
v 49.0000 0.0000 15.0000
v 22.0000 0.0000 16.0000
v 23.0000 0.0000 16.0000
v 24.0000 0.0000 16.0000
v 25.0000 8.0000 16.0000
v 26.0000 7.5000 16.0000
v 27.0000 7.5000 16.0000
v 28.0000 7.5000 16.0000
v 29.0000 7.5000 16.0000
v 30.0000 7.5000 16.0000
v 31.0000 7.5000 16.0000
v 32.0000 0.0000 16.0000
v 33.0000 0.0000 16.0000
v 49.0000 0.0000 16.0000
v 21.0000 0.0000 17.0000
v 22.0000 0.0000 17.0000
v 23.0000 0.0000 17.0000
v 24.0000 8.0000 17.0000
v 25.0000 8.0000 17.0000
v 26.0000 8.0000 17.0000
v 27.0000 7.5000 17.0000
v 28.0000 7.5000 17.0000
v 29.0000 7.5000 17.0000
v 30.0000 7.5000 17.0000
v 31.0000 7.5000 17.0000
v 32.0000 7.5000 17.0000
v 33.0000 0.0000 17.0000
v 49.0000 0.0000 17.0000
v 21.0000 0.0000 18.0000
v 22.0000 0.0000 18.0000
v 23.0000 8.0000 18.0000
v 24.0000 8.0000 18.0000
v 25.0000 8.0000 18.0000
v 26.0000 7.5000 18.0000
v 27.0000 7.5000 18.0000
v 28.0000 7.5000 18.0000
v 29.0000 7.5000 18.0000
v 30.0000 7.5000 18.0000
v 31.0000 7.5000 18.0000
v 32.0000 7.5000 18.0000
v 33.0000 0.0000 18.0000
v 49.0000 0.0000 18.0000
v 20.0000 0.0000 19.0000
v 21.0000 0.0000 19.0000
v 22.0000 0.0000 19.0000
v 23.0000 0.0000 19.0000
v 24.0000 8.0000 19.0000
v 25.0000 8.0000 19.0000
v 26.0000 8.0000 19.0000
v 27.0000 7.5000 19.0000
v 28.0000 7.5000 19.0000
v 29.0000 7.5000 19.0000
v 30.0000 7.5000 19.0000
v 31.0000 7.5000 19.0000
v 32.0000 0.0000 19.0000
v 49.0000 0.0000 19.0000
v 19.0000 0.0000 20.0000
v 20.0000 0.0000 20.0000
v 21.0000 0.0000 20.0000
v 22.0000 7.5000 20.0000
v 23.0000 8.0000 20.0000
v 24.0000 8.0000 20.0000
v 25.0000 8.0000 20.0000
v 26.0000 7.5000 20.0000
v 27.0000 7.5000 20.0000
v 28.0000 7.5000 20.0000
v 29.0000 7.5000 20.0000
v 30.0000 0.0000 20.0000
v 31.0000 0.0000 20.0000
v 49.0000 0.0000 20.0000
v 16.0000 0.0000 21.0000
v 17.0000 0.0000 21.0000
v 19.0000 0.0000 21.0000
v 20.0000 0.0000 21.0000
v 21.0000 7.5000 21.0000
v 22.0000 7.5000 21.0000
v 23.0000 7.5000 21.0000
v 24.0000 7.5000 21.0000
v 25.0000 7.5000 21.0000
v 26.0000 7.5000 21.0000
v 27.0000 7.5000 21.0000
v 28.0000 7.5000 21.0000
v 29.0000 7.5000 21.0000
v 30.0000 7.5000 21.0000
v 31.0000 0.0000 21.0000
v 32.0000 0.0000 21.0000
v 49.0000 0.0000 21.0000
v 15.0000 0.0000 22.0000
v 16.0000 0.0000 22.0000
v 17.0000 0.0000 22.0000
v 18.0000 0.0000 22.0000
v 19.0000 0.0000 22.0000
v 20.0000 0.0000 22.0000
v 21.0000 0.0000 22.0000
v 22.0000 7.5000 22.0000
v 23.0000 7.5000 22.0000
v 24.0000 7.5000 22.0000
v 25.0000 7.5000 22.0000
v 26.0000 7.5000 22.0000
v 27.0000 7.5000 22.0000
v 28.0000 7.5000 22.0000
v 29.0000 7.5000 22.0000
v 30.0000 7.5000 22.0000
v 31.0000 7.5000 22.0000
v 32.0000 0.0000 22.0000
v 33.0000 0.0000 22.0000
v 49.0000 0.0000 22.0000
v 14.0000 0.0000 23.0000
v 15.0000 0.0000 23.0000
v 16.0000 0.0000 23.0000
v 17.0000 7.5000 23.0000
v 18.0000 0.0000 23.0000
v 19.0000 0.0000 23.0000
v 20.0000 7.5000 23.0000
v 21.0000 7.5000 23.0000
v 22.0000 7.5000 23.0000
v 23.0000 7.5000 23.0000
v 24.0000 7.5000 23.0000
v 25.0000 7.5000 23.0000
v 26.0000 7.5000 23.0000
v 27.0000 7.5000 23.0000
v 28.0000 7.5000 23.0000
v 29.0000 7.5000 23.0000
v 30.0000 7.5000 23.0000
v 31.0000 7.5000 23.0000
v 32.0000 7.5000 23.0000
v 33.0000 0.0000 23.0000
v 49.0000 0.0000 23.0000
v 13.0000 0.0000 24.0000
v 14.0000 0.0000 24.0000
v 15.0000 0.0000 24.0000
v 16.0000 0.0000 24.0000
v 17.0000 7.5000 24.0000
v 18.0000 0.0000 24.0000
v 19.0000 7.5000 24.0000
v 20.0000 7.5000 24.0000
v 21.0000 7.5000 24.0000
v 22.0000 7.5000 24.0000
v 23.0000 7.5000 24.0000
v 24.0000 7.5000 24.0000
v 25.0000 7.5000 24.0000
v 26.0000 7.5000 24.0000
v 27.0000 7.5000 24.0000
v 28.0000 7.5000 24.0000
v 29.0000 7.5000 24.0000
v 30.0000 7.5000 24.0000
v 31.0000 7.5000 24.0000
v 32.0000 0.0000 24.0000
v 49.0000 0.0000 24.0000
v 13.0000 0.0000 25.0000
v 14.0000 0.0000 25.0000
v 15.0000 7.5000 25.0000
v 16.0000 7.5000 25.0000
v 17.0000 7.5000 25.0000
v 18.0000 7.5000 25.0000
v 19.0000 7.5000 25.0000
v 20.0000 7.5000 25.0000
v 21.0000 7.5000 25.0000
v 22.0000 7.5000 25.0000
v 23.0000 7.5000 25.0000
v 24.0000 7.5000 25.0000
v 25.0000 7.5000 25.0000
v 26.0000 8.0000 25.0000
v 27.0000 7.5000 25.0000
v 28.0000 7.5000 25.0000
v 29.0000 7.5000 25.0000
v 30.0000 7.5000 25.0000
v 31.0000 0.0000 25.0000
v 32.0000 0.0000 25.0000
v 49.0000 0.0000 25.0000
v 13.0000 0.0000 26.0000
v 14.0000 0.0000 26.0000
v 15.0000 0.0000 26.0000
v 16.0000 7.5000 26.0000
v 17.0000 7.5000 26.0000
v 18.0000 7.5000 26.0000
v 19.0000 7.5000 26.0000
v 20.0000 7.5000 26.0000
v 21.0000 7.5000 26.0000
v 22.0000 7.5000 26.0000
v 23.0000 7.5000 26.0000
v 24.0000 8.0000 26.0000
v 25.0000 8.0000 26.0000
v 26.0000 8.0000 26.0000
v 27.0000 8.0000 26.0000
v 28.0000 8.0000 26.0000
v 29.0000 7.5000 26.0000
v 30.0000 7.5000 26.0000
v 31.0000 7.5000 26.0000
v 32.0000 0.0000 26.0000
v 49.0000 0.0000 26.0000
v 12.0000 0.0000 27.0000
v 13.0000 0.0000 27.0000
v 14.0000 0.0000 27.0000
v 15.0000 0.0000 27.0000
v 16.0000 7.5000 27.0000
v 17.0000 7.5000 27.0000
v 18.0000 7.5000 27.0000
v 19.0000 7.5000 27.0000
v 20.0000 7.5000 27.0000
v 21.0000 7.5000 27.0000
v 22.0000 7.5000 27.0000
v 23.0000 7.5000 27.0000
v 24.0000 8.0000 27.0000
v 25.0000 8.0000 27.0000
v 26.0000 8.0000 27.0000
v 27.0000 8.0000 27.0000
v 28.0000 8.0000 27.0000
v 29.0000 8.0000 27.0000
v 30.0000 7.5000 27.0000
v 31.0000 7.5000 27.0000
v 32.0000 0.0000 27.0000
v 33.0000 0.0000 27.0000
v 49.0000 0.0000 27.0000
v 12.0000 0.0000 28.0000
v 13.0000 0.0000 28.0000
v 14.0000 7.5000 28.0000
v 15.0000 7.5000 28.0000
v 16.0000 7.5000 28.0000
v 17.0000 7.5000 28.0000
v 18.0000 7.5000 28.0000
v 19.0000 7.5000 28.0000
v 20.0000 7.5000 28.0000
v 21.0000 7.5000 28.0000
v 22.0000 7.5000 28.0000
v 23.0000 8.0000 28.0000
v 24.0000 8.0000 28.0000
v 25.0000 8.0000 28.0000
v 26.0000 8.0000 28.0000
v 27.0000 8.0000 28.0000
v 28.0000 8.0000 28.0000
v 29.0000 8.0000 28.0000
v 30.0000 7.5000 28.0000
v 31.0000 7.5000 28.0000
v 32.0000 7.5000 28.0000
v 33.0000 0.0000 28.0000
v 49.0000 0.0000 28.0000
v 10.0000 0.0000 29.0000
v 11.0000 0.0000 29.0000
v 12.0000 0.0000 29.0000
v 13.0000 0.0000 29.0000
v 14.0000 7.5000 29.0000
v 15.0000 7.5000 29.0000
v 16.0000 7.5000 29.0000
v 17.0000 7.5000 29.0000
v 18.0000 7.5000 29.0000
v 19.0000 7.5000 29.0000
v 20.0000 8.0000 29.0000
v 21.0000 7.5000 29.0000
v 22.0000 7.5000 29.0000
v 23.0000 7.5000 29.0000
v 24.0000 7.5000 29.0000
v 25.0000 8.0000 29.0000
v 26.0000 8.0000 29.0000
v 27.0000 8.0000 29.0000
v 28.0000 8.0000 29.0000
v 29.0000 7.5000 29.0000
v 30.0000 7.5000 29.0000
v 31.0000 7.5000 29.0000
v 32.0000 0.0000 29.0000
v 49.0000 0.0000 29.0000
v 8.0000 0.0000 30.0000
v 9.0000 0.0000 30.0000
v 10.0000 0.0000 30.0000
v 11.0000 0.0000 30.0000
v 12.0000 0.0000 30.0000
v 13.0000 0.0000 30.0000
v 14.0000 8.0000 30.0000
v 15.0000 8.0000 30.0000
v 16.0000 7.5000 30.0000
v 17.0000 7.5000 30.0000
v 18.0000 7.5000 30.0000
v 19.0000 8.0000 30.0000
v 20.0000 8.0000 30.0000
v 21.0000 7.5000 30.0000
v 22.0000 7.5000 30.0000
v 23.0000 7.5000 30.0000
v 24.0000 7.5000 30.0000
v 25.0000 8.0000 30.0000
v 26.0000 8.0000 30.0000
v 27.0000 8.0000 30.0000
v 28.0000 7.5000 30.0000
v 29.0000 7.5000 30.0000
v 30.0000 7.5000 30.0000
v 31.0000 0.0000 30.0000
v 49.0000 0.0000 30.0000
v 7.0000 0.0000 31.0000
v 8.0000 0.0000 31.0000
v 9.0000 0.0000 31.0000
v 10.0000 0.0000 31.0000
v 11.0000 7.5000 31.0000
v 12.0000 7.5000 31.0000
v 13.0000 8.0000 31.0000
v 14.0000 8.0000 31.0000
v 15.0000 8.0000 31.0000
v 16.0000 7.5000 31.0000
v 17.0000 7.5000 31.0000
v 18.0000 8.0000 31.0000
v 19.0000 8.0000 31.0000
v 20.0000 8.0000 31.0000
v 21.0000 8.0000 31.0000
v 22.0000 7.5000 31.0000
v 23.0000 7.5000 31.0000
v 24.0000 7.5000 31.0000
v 25.0000 7.5000 31.0000
v 26.0000 7.5000 31.0000
v 27.0000 7.5000 31.0000
v 28.0000 7.5000 31.0000
v 29.0000 7.5000 31.0000
v 30.0000 7.5000 31.0000
v 31.0000 0.0000 31.0000
v 49.0000 0.0000 31.0000
v 5.0000 0.0000 32.0000
v 6.0000 0.0000 32.0000
v 7.0000 0.0000 32.0000
v 8.0000 0.0000 32.0000
v 9.0000 7.5000 32.0000
v 10.0000 0.0000 32.0000
v 11.0000 7.5000 32.0000
v 12.0000 7.5000 32.0000
v 13.0000 7.5000 32.0000
v 14.0000 7.5000 32.0000
v 15.0000 7.5000 32.0000
v 16.0000 7.5000 32.0000
v 17.0000 7.5000 32.0000
v 18.0000 7.5000 32.0000
v 19.0000 8.0000 32.0000
v 20.0000 8.0000 32.0000
v 21.0000 8.0000 32.0000
v 22.0000 8.0000 32.0000
v 23.0000 7.5000 32.0000
v 24.0000 7.5000 32.0000
v 25.0000 7.5000 32.0000
v 26.0000 7.5000 32.0000
v 27.0000 7.5000 32.0000
v 28.0000 7.5000 32.0000
v 29.0000 7.5000 32.0000
v 30.0000 0.0000 32.0000
v 31.0000 0.0000 32.0000
v 32.0000 0.0000 32.0000
v 33.0000 0.0000 32.0000
v 49.0000 0.0000 32.0000
v 4.0000 0.0000 33.0000
v 5.0000 0.0000 33.0000
v 6.0000 0.0000 33.0000
v 7.0000 0.0000 33.0000
v 8.0000 7.5000 33.0000
v 9.0000 7.5000 33.0000
v 10.0000 7.5000 33.0000
v 11.0000 7.5000 33.0000
v 12.0000 7.5000 33.0000
v 13.0000 7.5000 33.0000
v 14.0000 7.5000 33.0000
v 15.0000 7.5000 33.0000
v 16.0000 7.5000 33.0000
v 17.0000 8.0000 33.0000
v 18.0000 8.0000 33.0000
v 19.0000 8.0000 33.0000
v 20.0000 8.0000 33.0000
v 21.0000 8.0000 33.0000
v 22.0000 8.0000 33.0000
v 23.0000 8.0000 33.0000
v 24.0000 7.5000 33.0000
v 25.0000 7.5000 33.0000
v 26.0000 7.5000 33.0000
v 27.0000 7.5000 33.0000
v 28.0000 7.5000 33.0000
v 29.0000 7.5000 33.0000
v 30.0000 0.0000 33.0000
v 31.0000 0.0000 33.0000
v 32.0000 0.0000 33.0000
v 33.0000 0.0000 33.0000
v 34.0000 0.0000 33.0000
v 35.0000 0.0000 33.0000
v 49.0000 0.0000 33.0000
v 4.0000 0.0000 34.0000
v 5.0000 0.0000 34.0000
v 6.0000 7.5000 34.0000
v 7.0000 7.5000 34.0000
v 8.0000 7.5000 34.0000
v 9.0000 7.5000 34.0000
v 10.0000 7.5000 34.0000
v 11.0000 7.5000 34.0000
v 12.0000 7.5000 34.0000
v 13.0000 7.5000 34.0000
v 14.0000 7.5000 34.0000
v 15.0000 7.5000 34.0000
v 16.0000 7.5000 34.0000
v 17.0000 7.5000 34.0000
v 18.0000 8.0000 34.0000
v 19.0000 8.0000 34.0000
v 20.0000 8.0000 34.0000
v 21.0000 8.0000 34.0000
v 22.0000 8.0000 34.0000
v 23.0000 7.5000 34.0000
v 24.0000 7.5000 34.0000
v 25.0000 7.5000 34.0000
v 26.0000 7.5000 34.0000
v 27.0000 7.5000 34.0000
v 28.0000 8.0000 34.0000
v 29.0000 8.0000 34.0000
v 30.0000 0.0000 34.0000
v 31.0000 0.0000 34.0000
v 32.0000 7.5000 34.0000
v 33.0000 7.5000 34.0000
v 34.0000 0.0000 34.0000
v 35.0000 0.0000 34.0000
v 36.0000 0.0000 34.0000
v 37.0000 0.0000 34.0000
v 49.0000 0.0000 34.0000
v 4.0000 0.0000 35.0000
v 5.0000 0.0000 35.0000
v 6.0000 7.5000 35.0000
v 7.0000 7.5000 35.0000
v 8.0000 7.5000 35.0000
v 9.0000 7.5000 35.0000
v 10.0000 7.5000 35.0000
v 11.0000 7.5000 35.0000
v 12.0000 7.5000 35.0000
v 13.0000 7.5000 35.0000
v 14.0000 7.5000 35.0000
v 15.0000 7.5000 35.0000
v 16.0000 7.5000 35.0000
v 17.0000 7.5000 35.0000
v 18.0000 7.5000 35.0000
v 19.0000 8.0000 35.0000
v 20.0000 8.0000 35.0000
v 21.0000 7.5000 35.0000
v 22.0000 7.5000 35.0000
v 23.0000 7.5000 35.0000
v 24.0000 7.5000 35.0000
v 25.0000 7.5000 35.0000
v 26.0000 7.5000 35.0000
v 27.0000 7.5000 35.0000
v 28.0000 8.0000 35.0000
v 29.0000 8.0000 35.0000
v 30.0000 8.0000 35.0000
v 31.0000 7.5000 35.0000
v 32.0000 7.5000 35.0000
v 33.0000 7.5000 35.0000
v 34.0000 7.5000 35.0000
v 35.0000 7.5000 35.0000
v 36.0000 0.0000 35.0000
v 37.0000 0.0000 35.0000
v 38.0000 0.0000 35.0000
v 49.0000 0.0000 35.0000
v 4.0000 0.0000 36.0000
v 5.0000 0.0000 36.0000
v 6.0000 7.5000 36.0000
v 7.0000 7.5000 36.0000
v 8.0000 7.5000 36.0000
v 9.0000 7.5000 36.0000
v 10.0000 7.5000 36.0000
v 11.0000 7.5000 36.0000
v 12.0000 7.5000 36.0000
v 13.0000 7.5000 36.0000
v 14.0000 7.5000 36.0000
v 15.0000 7.5000 36.0000
v 16.0000 7.5000 36.0000
v 17.0000 7.5000 36.0000
v 18.0000 7.5000 36.0000
v 19.0000 7.5000 36.0000
v 20.0000 7.5000 36.0000
v 21.0000 7.5000 36.0000
v 22.0000 7.5000 36.0000
v 23.0000 7.5000 36.0000
v 24.0000 7.5000 36.0000
v 25.0000 7.5000 36.0000
v 26.0000 8.0000 36.0000
v 27.0000 8.0000 36.0000
v 28.0000 8.0000 36.0000
v 29.0000 8.0000 36.0000
v 30.0000 8.0000 36.0000
v 31.0000 8.0000 36.0000
v 32.0000 8.0000 36.0000
v 33.0000 7.5000 36.0000
v 34.0000 7.5000 36.0000
v 35.0000 7.5000 36.0000
v 36.0000 0.0000 36.0000
v 37.0000 7.5000 36.0000
v 38.0000 0.0000 36.0000
v 39.0000 0.0000 36.0000
v 49.0000 0.0000 36.0000
v 5.0000 0.0000 37.0000
v 6.0000 0.0000 37.0000
v 7.0000 7.5000 37.0000
v 8.0000 7.5000 37.0000
v 9.0000 7.5000 37.0000
v 10.0000 7.5000 37.0000
v 11.0000 7.5000 37.0000
v 12.0000 7.5000 37.0000
v 13.0000 7.5000 37.0000
v 14.0000 7.5000 37.0000
v 15.0000 7.5000 37.0000
v 16.0000 7.5000 37.0000
v 17.0000 7.5000 37.0000
v 18.0000 7.5000 37.0000
v 19.0000 0.0000 37.0000
v 20.0000 7.5000 37.0000
v 21.0000 7.5000 37.0000
v 22.0000 7.5000 37.0000
v 23.0000 7.5000 37.0000
v 24.0000 7.5000 37.0000
v 25.0000 8.0000 37.0000
v 26.0000 8.0000 37.0000
v 27.0000 8.0000 37.0000
v 28.0000 8.0000 37.0000
v 29.0000 8.0000 37.0000
v 30.0000 8.0000 37.0000
v 31.0000 7.5000 37.0000
v 32.0000 7.5000 37.0000
v 33.0000 7.5000 37.0000
v 34.0000 7.5000 37.0000
v 35.0000 7.5000 37.0000
v 36.0000 7.5000 37.0000
v 37.0000 7.5000 37.0000
v 38.0000 7.5000 37.0000
v 39.0000 0.0000 37.0000
v 49.0000 0.0000 37.0000
v 6.0000 0.0000 38.0000
v 7.0000 0.0000 38.0000
v 8.0000 0.0000 38.0000
v 9.0000 7.5000 38.0000
v 10.0000 7.5000 38.0000
v 11.0000 7.5000 38.0000
v 12.0000 7.5000 38.0000
v 13.0000 7.5000 38.0000
v 14.0000 7.5000 38.0000
v 15.0000 7.5000 38.0000
v 16.0000 7.5000 38.0000
v 17.0000 7.5000 38.0000
v 18.0000 0.0000 38.0000
v 19.0000 0.0000 38.0000
v 20.0000 0.0000 38.0000
v 21.0000 0.0000 38.0000
v 22.0000 7.5000 38.0000
v 23.0000 7.5000 38.0000
v 24.0000 7.5000 38.0000
v 25.0000 7.5000 38.0000
v 26.0000 8.0000 38.0000
v 27.0000 8.0000 38.0000
v 28.0000 8.0000 38.0000
v 29.0000 8.0000 38.0000
v 30.0000 8.0000 38.0000
v 31.0000 8.0000 38.0000
v 32.0000 7.5000 38.0000
v 33.0000 7.5000 38.0000
v 34.0000 7.5000 38.0000
v 35.0000 7.5000 38.0000
v 36.0000 7.5000 38.0000
v 37.0000 7.5000 38.0000
v 38.0000 7.5000 38.0000
v 39.0000 0.0000 38.0000
v 40.0000 0.0000 38.0000
v 49.0000 0.0000 38.0000
v 7.0000 0.0000 39.0000
v 8.0000 0.0000 39.0000
v 9.0000 7.5000 39.0000
v 10.0000 7.5000 39.0000
v 11.0000 7.5000 39.0000
v 12.0000 7.5000 39.0000
v 13.0000 7.5000 39.0000
v 14.0000 7.5000 39.0000
v 15.0000 7.5000 39.0000
v 16.0000 7.5000 39.0000
v 17.0000 0.0000 39.0000
v 21.0000 0.0000 39.0000
v 22.0000 0.0000 39.0000
v 23.0000 0.0000 39.0000
v 24.0000 0.0000 39.0000
v 25.0000 7.5000 39.0000
v 26.0000 7.5000 39.0000
v 27.0000 7.5000 39.0000
v 28.0000 7.5000 39.0000
v 29.0000 7.5000 39.0000
v 30.0000 7.5000 39.0000
v 31.0000 7.5000 39.0000
v 32.0000 7.5000 39.0000
v 33.0000 7.5000 39.0000
v 34.0000 7.5000 39.0000
v 35.0000 7.5000 39.0000
v 36.0000 7.5000 39.0000
v 37.0000 7.5000 39.0000
v 38.0000 7.5000 39.0000
v 39.0000 7.5000 39.0000
v 40.0000 0.0000 39.0000
v 49.0000 0.0000 39.0000
v 7.0000 0.0000 40.0000
v 8.0000 0.0000 40.0000
v 9.0000 7.5000 40.0000
v 10.0000 7.5000 40.0000
v 11.0000 7.5000 40.0000
v 12.0000 7.5000 40.0000
v 13.0000 7.5000 40.0000
v 14.0000 7.5000 40.0000
v 15.0000 7.5000 40.0000
v 16.0000 7.5000 40.0000
v 17.0000 0.0000 40.0000
v 23.0000 0.0000 40.0000
v 24.0000 0.0000 40.0000
v 25.0000 7.5000 40.0000
v 26.0000 7.5000 40.0000
v 27.0000 7.5000 40.0000
v 28.0000 7.5000 40.0000
v 29.0000 7.5000 40.0000
v 30.0000 7.5000 40.0000
v 31.0000 7.5000 40.0000
v 32.0000 7.5000 40.0000
v 33.0000 7.5000 40.0000
v 34.0000 7.5000 40.0000
v 35.0000 7.5000 40.0000
v 36.0000 7.5000 40.0000
v 37.0000 7.5000 40.0000
v 38.0000 7.5000 40.0000
v 39.0000 7.5000 40.0000
v 40.0000 0.0000 40.0000
v 49.0000 0.0000 40.0000
v 8.0000 0.0000 41.0000
v 9.0000 0.0000 41.0000
v 10.0000 7.5000 41.0000
v 11.0000 7.5000 41.0000
v 12.0000 7.5000 41.0000
v 13.0000 0.0000 41.0000
v 14.0000 7.5000 41.0000
v 15.0000 0.0000 41.0000
v 16.0000 0.0000 41.0000
v 23.0000 0.0000 41.0000
v 24.0000 0.0000 41.0000
v 25.0000 7.5000 41.0000
v 26.0000 7.5000 41.0000
v 27.0000 7.5000 41.0000
v 28.0000 7.5000 41.0000
v 29.0000 7.5000 41.0000
v 30.0000 7.5000 41.0000
v 31.0000 7.5000 41.0000
v 32.0000 7.5000 41.0000
v 33.0000 7.5000 41.0000
v 34.0000 7.5000 41.0000
v 35.0000 7.5000 41.0000
v 36.0000 7.5000 41.0000
v 37.0000 7.5000 41.0000
v 38.0000 7.5000 41.0000
v 39.0000 7.5000 41.0000
v 40.0000 0.0000 41.0000
v 49.0000 0.0000 41.0000
v 9.0000 0.0000 42.0000
v 10.0000 0.0000 42.0000
v 11.0000 0.0000 42.0000
v 12.0000 0.0000 42.0000
v 13.0000 0.0000 42.0000
v 14.0000 0.0000 42.0000
v 24.0000 0.0000 42.0000
v 25.0000 0.0000 42.0000
v 26.0000 0.0000 42.0000
v 27.0000 7.5000 42.0000
v 28.0000 7.5000 42.0000
v 29.0000 7.5000 42.0000
v 30.0000 7.5000 42.0000
v 31.0000 7.5000 42.0000
v 32.0000 7.5000 42.0000
v 33.0000 7.5000 42.0000
v 34.0000 7.5000 42.0000
v 35.0000 7.5000 42.0000
v 36.0000 7.5000 42.0000
v 37.0000 7.5000 42.0000
v 38.0000 0.0000 42.0000
v 39.0000 0.0000 42.0000
v 49.0000 0.0000 42.0000
v 26.0000 0.0000 43.0000
v 27.0000 0.0000 43.0000
v 28.0000 0.0000 43.0000
v 29.0000 0.0000 43.0000
v 30.0000 7.5000 43.0000
v 31.0000 7.5000 43.0000
v 32.0000 7.5000 43.0000
v 33.0000 7.5000 43.0000
v 34.0000 7.5000 43.0000
v 35.0000 7.5000 43.0000
v 36.0000 7.5000 43.0000
v 37.0000 0.0000 43.0000
v 49.0000 0.0000 43.0000
v 28.0000 0.0000 44.0000
v 29.0000 0.0000 44.0000
v 30.0000 7.5000 44.0000
v 31.0000 7.5000 44.0000
v 32.0000 7.5000 44.0000
v 33.0000 7.5000 44.0000
v 34.0000 7.5000 44.0000
v 35.0000 0.0000 44.0000
v 36.0000 0.0000 44.0000
v 49.0000 0.0000 44.0000
v 29.0000 0.0000 45.0000
v 30.0000 0.0000 45.0000
v 31.0000 7.5000 45.0000
v 32.0000 0.0000 45.0000
v 33.0000 0.0000 45.0000
v 34.0000 0.0000 45.0000
v 49.0000 0.0000 45.0000
v 30.0000 0.0000 46.0000
v 31.0000 0.0000 46.0000
v 49.0000 0.0000 46.0000
v 49.0000 0.0000 47.0000
v 49.0000 0.0000 48.0000
v 0.0000 0.0000 49.0000
v 1.0000 0.0000 49.0000
v 2.0000 0.0000 49.0000
v 3.0000 0.0000 49.0000
v 4.0000 0.0000 49.0000
v 5.0000 0.0000 49.0000
v 6.0000 0.0000 49.0000
v 7.0000 0.0000 49.0000
v 8.0000 0.0000 49.0000
v 9.0000 0.0000 49.0000
v 10.0000 0.0000 49.0000
v 11.0000 0.0000 49.0000
v 12.0000 0.0000 49.0000
v 13.0000 0.0000 49.0000
v 14.0000 0.0000 49.0000
v 15.0000 0.0000 49.0000
v 16.0000 0.0000 49.0000
v 17.0000 0.0000 49.0000
v 18.0000 0.0000 49.0000
v 19.0000 0.0000 49.0000
v 20.0000 0.0000 49.0000
v 21.0000 0.0000 49.0000
v 22.0000 0.0000 49.0000
v 23.0000 0.0000 49.0000
v 24.0000 0.0000 49.0000
v 25.0000 0.0000 49.0000
v 26.0000 0.0000 49.0000
v 27.0000 0.0000 49.0000
v 28.0000 0.0000 49.0000
v 29.0000 0.0000 49.0000
v 30.0000 0.0000 49.0000
v 31.0000 0.0000 49.0000
v 32.0000 0.0000 49.0000
v 33.0000 0.0000 49.0000
v 34.0000 0.0000 49.0000
v 35.0000 0.0000 49.0000
v 36.0000 0.0000 49.0000
v 37.0000 0.0000 49.0000
v 38.0000 0.0000 49.0000
v 39.0000 0.0000 49.0000
v 40.0000 0.0000 49.0000
v 41.0000 0.0000 49.0000
v 42.0000 0.0000 49.0000
v 43.0000 0.0000 49.0000
v 44.0000 0.0000 49.0000
v 45.0000 0.0000 49.0000
v 46.0000 0.0000 49.0000
v 47.0000 0.0000 49.0000
v 48.0000 0.0000 49.0000
v 49.0000 0.0000 49.0000
f 10 13 14
f 10 11 15 14
f 11 15 16
f 13 18 19
f 13 14 20 19
f 14 15 21 20
f 15 16 22 21
f 16 22 23
f 18 19 27 26
f 19 20 28 27
f 20 21 29 28
f 21 22 30 29
f 22 23 31 30
f 23 24 32 31
f 24 32 33
f 26 35 36
f 26 27 37 36
f 27 28 38 37
f 28 29 39 38
f 29 30 40 39
f 30 31 41 40
f 31 32 42 41
f 32 33 43 42
f 33 43 44
f 35 36 47 46
f 36 37 48 47
f 37 38 49 48
f 38 39 50 49
f 39 40 51 50
f 40 41 52 51
f 41 42 53 52
f 42 43 54 53
f 43 44 55 54
f 44 55 56
f 46 47 59 58
f 47 48 60 59
f 48 49 61 60
f 49 50 62 61
f 50 51 63 62
f 51 52 64 63
f 52 53 65 64
f 53 54 66 65
f 54 55 67 66
f 55 56 68 67
f 58 59 71 70
f 59 60 72 71
f 60 61 73 72
f 61 62 74 73
f 62 63 75 74
f 63 64 76 75
f 64 65 77 76
f 65 66 78 77
f 66 67 79 78
f 67 68 80 79
f 68 80 81
f 70 83 84
f 70 71 85 84
f 71 72 86 85
f 72 73 87 86
f 73 74 88 87
f 74 75 89 88
f 75 76 90 89
f 76 77 91 90
f 77 78 92 91
f 78 79 93 92
f 79 80 94 93
f 80 81 95 94
f 83 84 98 97
f 84 85 99 98
f 85 86 100 99
f 86 87 101 100
f 87 88 102 101
f 88 89 103 102
f 89 90 104 103
f 90 91 105 104
f 91 92 106 105
f 92 93 107 106
f 93 94 108 107
f 94 95 109 108
f 97 111 112
f 97 98 113 112
f 98 99 114 113
f 99 100 115 114
f 100 101 116 115
f 101 102 117 116
f 102 103 118 117
f 103 104 119 118
f 104 105 120 119
f 105 106 121 120
f 106 107 122 121
f 107 108 123 122
f 108 123 109
f 111 125 126
f 111 112 127 126
f 112 113 128 127
f 113 114 129 128
f 114 115 130 129
f 115 116 131 130
f 116 117 132 131
f 117 118 133 132
f 118 119 134 133
f 119 120 135 134
f 120 121 136 135
f 121 122 137 136
f 122 137 123
f 125 126 142 141
f 126 127 143 142
f 127 128 144 143
f 128 129 145 144
f 129 130 146 145
f 130 131 147 146
f 131 132 148 147
f 132 133 149 148
f 133 134 150 149
f 134 135 151 150
f 135 136 152 151
f 136 137 153 152
f 137 153 154
f 139 156 157
f 139 140 158 157
f 140 158 159
f 141 159 160
f 141 142 161 160
f 142 143 162 161
f 143 144 163 162
f 144 145 164 163
f 145 146 165 164
f 146 147 166 165
f 147 148 167 166
f 148 149 168 167
f 149 150 169 168
f 150 151 170 169
f 151 152 171 170
f 152 153 172 171
f 153 154 173 172
f 154 173 174
f 156 176 177
f 156 157 178 177
f 157 158 179 178
f 158 159 180 179
f 159 160 181 180
f 160 161 182 181
f 161 162 183 182
f 162 163 184 183
f 163 164 185 184
f 164 165 186 185
f 165 166 187 186
f 166 167 188 187
f 167 168 189 188
f 168 169 190 189
f 169 170 191 190
f 170 171 192 191
f 171 172 193 192
f 172 173 194 193
f 173 174 195 194
f 176 197 198
f 176 177 199 198
f 177 178 200 199
f 178 179 201 200
f 179 180 202 201
f 180 181 203 202
f 181 182 204 203
f 182 183 205 204
f 183 184 206 205
f 184 185 207 206
f 185 186 208 207
f 186 187 209 208
f 187 188 210 209
f 188 189 211 210
f 189 190 212 211
f 190 191 213 212
f 191 192 214 213
f 192 193 215 214
f 193 194 216 215
f 194 216 195
f 197 198 219 218
f 198 199 220 219
f 199 200 221 220
f 200 201 222 221
f 201 202 223 222
f 202 203 224 223
f 203 204 225 224
f 204 205 226 225
f 205 206 227 226
f 206 207 228 227
f 207 208 229 228
f 208 209 230 229
f 209 210 231 230
f 210 211 232 231
f 211 212 233 232
f 212 213 234 233
f 213 214 235 234
f 214 215 236 235
f 215 216 237 236
f 218 219 240 239
f 219 220 241 240
f 220 221 242 241
f 221 222 243 242
f 222 223 244 243
f 223 224 245 244
f 224 225 246 245
f 225 226 247 246
f 226 227 248 247
f 227 228 249 248
f 228 229 250 249
f 229 230 251 250
f 230 231 252 251
f 231 232 253 252
f 232 233 254 253
f 233 234 255 254
f 234 235 256 255
f 235 236 257 256
f 236 237 258 257
f 239 260 261
f 239 240 262 261
f 240 241 263 262
f 241 242 264 263
f 242 243 265 264
f 243 244 266 265
f 244 245 267 266
f 245 246 268 267
f 246 247 269 268
f 247 248 270 269
f 248 249 271 270
f 249 250 272 271
f 250 251 273 272
f 251 252 274 273
f 252 253 275 274
f 253 254 276 275
f 254 255 277 276
f 255 256 278 277
f 256 257 279 278
f 257 258 280 279
f 258 280 281
f 260 261 284 283
f 261 262 285 284
f 262 263 286 285
f 263 264 287 286
f 264 265 288 287
f 265 266 289 288
f 266 267 290 289
f 267 268 291 290
f 268 269 292 291
f 269 270 293 292
f 270 271 294 293
f 271 272 295 294
f 272 273 296 295
f 273 274 297 296
f 274 275 298 297
f 275 276 299 298
f 276 277 300 299
f 277 278 301 300
f 278 279 302 301
f 279 280 303 302
f 280 281 304 303
f 283 307 308
f 283 284 309 308
f 284 285 310 309
f 285 286 311 310
f 286 287 312 311
f 287 288 313 312
f 288 289 314 313
f 289 290 315 314
f 290 291 316 315
f 291 292 317 316
f 292 293 318 317
f 293 294 319 318
f 294 295 320 319
f 295 296 321 320
f 296 297 322 321
f 297 298 323 322
f 298 299 324 323
f 299 300 325 324
f 300 301 326 325
f 301 302 327 326
f 302 303 328 327
f 303 328 304
f 306 331 332
f 306 307 333 332
f 307 308 334 333
f 308 309 335 334
f 309 310 336 335
f 310 311 337 336
f 311 312 338 337
f 312 313 339 338
f 313 314 340 339
f 314 315 341 340
f 315 316 342 341
f 316 317 343 342
f 317 318 344 343
f 318 319 345 344
f 319 320 346 345
f 320 321 347 346
f 321 322 348 347
f 322 323 349 348
f 323 324 350 349
f 324 325 351 350
f 325 326 352 351
f 326 327 353 352
f 327 353 328
f 330 355 356
f 330 331 357 356
f 331 332 358 357
f 332 333 359 358
f 333 334 360 359
f 334 335 361 360
f 335 336 362 361
f 336 337 363 362
f 337 338 364 363
f 338 339 365 364
f 339 340 366 365
f 340 341 367 366
f 341 342 368 367
f 342 343 369 368
f 343 344 370 369
f 344 345 371 370
f 345 346 372 371
f 346 347 373 372
f 347 348 374 373
f 348 349 375 374
f 349 350 376 375
f 350 351 377 376
f 351 352 378 377
f 352 353 379 378
f 355 382 383
f 355 356 384 383
f 356 357 385 384
f 357 358 386 385
f 358 359 387 386
f 359 360 388 387
f 360 361 389 388
f 361 362 390 389
f 362 363 391 390
f 363 364 392 391
f 364 365 393 392
f 365 366 394 393
f 366 367 395 394
f 367 368 396 395
f 368 369 397 396
f 369 370 398 397
f 370 371 399 398
f 371 372 400 399
f 372 373 401 400
f 373 374 402 401
f 374 375 403 402
f 375 376 404 403
f 376 377 405 404
f 377 378 406 405
f 378 379 407 406
f 379 407 408
f 381 411 412
f 381 382 413 412
f 382 383 414 413
f 383 384 415 414
f 384 385 416 415
f 385 386 417 416
f 386 387 418 417
f 387 388 419 418
f 388 389 420 419
f 389 390 421 420
f 390 391 422 421
f 391 392 423 422
f 392 393 424 423
f 393 394 425 424
f 394 395 426 425
f 395 396 427 426
f 396 397 428 427
f 397 398 429 428
f 398 399 430 429
f 399 400 431 430
f 400 401 432 431
f 401 402 433 432
f 402 403 434 433
f 403 404 435 434
f 404 405 436 435
f 405 406 437 436
f 406 407 438 437
f 407 408 439 438
f 408 409 440 439
f 409 440 441
f 411 412 445 444
f 412 413 446 445
f 413 414 447 446
f 414 415 448 447
f 415 416 449 448
f 416 417 450 449
f 417 418 451 450
f 418 419 452 451
f 419 420 453 452
f 420 421 454 453
f 421 422 455 454
f 422 423 456 455
f 423 424 457 456
f 424 425 458 457
f 425 426 459 458
f 426 427 460 459
f 427 428 461 460
f 428 429 462 461
f 429 430 463 462
f 430 431 464 463
f 431 432 465 464
f 432 433 466 465
f 433 434 467 466
f 434 435 468 467
f 435 436 469 468
f 436 437 470 469
f 437 438 471 470
f 438 439 472 471
f 439 440 473 472
f 440 441 474 473
f 441 442 475 474
f 442 475 476
f 444 445 480 479
f 445 446 481 480
f 446 447 482 481
f 447 448 483 482
f 448 449 484 483
f 449 450 485 484
f 450 451 486 485
f 451 452 487 486
f 452 453 488 487
f 453 454 489 488
f 454 455 490 489
f 455 456 491 490
f 456 457 492 491
f 457 458 493 492
f 458 459 494 493
f 459 460 495 494
f 460 461 496 495
f 461 462 497 496
f 462 463 498 497
f 463 464 499 498
f 464 465 500 499
f 465 466 501 500
f 466 467 502 501
f 467 468 503 502
f 468 469 504 503
f 469 470 505 504
f 470 471 506 505
f 471 472 507 506
f 472 473 508 507
f 473 474 509 508
f 474 475 510 509
f 475 476 511 510
f 476 477 512 511
f 477 512 513
f 479 480 516 515
f 480 481 517 516
f 481 482 518 517
f 482 483 519 518
f 483 484 520 519
f 484 485 521 520
f 485 486 522 521
f 486 487 523 522
f 487 488 524 523
f 488 489 525 524
f 489 490 526 525
f 490 491 527 526
f 491 492 528 527
f 492 493 529 528
f 493 494 530 529
f 494 495 531 530
f 495 496 532 531
f 496 497 533 532
f 497 498 534 533
f 498 499 535 534
f 499 500 536 535
f 500 501 537 536
f 501 502 538 537
f 502 503 539 538
f 503 504 540 539
f 504 505 541 540
f 505 506 542 541
f 506 507 543 542
f 507 508 544 543
f 508 509 545 544
f 509 510 546 545
f 510 511 547 546
f 511 512 548 547
f 512 513 549 548
f 513 549 550
f 515 552 516
f 516 517 553 552
f 517 518 554 553
f 518 519 555 554
f 519 520 556 555
f 520 521 557 556
f 521 522 558 557
f 522 523 559 558
f 523 524 560 559
f 524 525 561 560
f 525 526 562 561
f 526 527 563 562
f 527 528 564 563
f 528 529 565 564
f 529 530 566 565
f 530 531 567 566
f 531 532 568 567
f 532 533 569 568
f 533 534 570 569
f 534 535 571 570
f 535 536 572 571
f 536 537 573 572
f 537 538 574 573
f 538 539 575 574
f 539 540 576 575
f 540 541 577 576
f 541 542 578 577
f 542 543 579 578
f 543 544 580 579
f 544 545 581 580
f 545 546 582 581
f 546 547 583 582
f 547 548 584 583
f 548 549 585 584
f 549 550 586 585
f 552 588 553
f 553 554 589 588
f 554 555 590 589
f 555 556 591 590
f 556 557 592 591
f 557 558 593 592
f 558 559 594 593
f 559 560 595 594
f 560 561 596 595
f 561 562 597 596
f 562 563 598 597
f 563 564 599 598
f 564 565 600 599
f 565 566 601 600
f 566 567 602 601
f 567 568 603 602
f 568 569 604 603
f 569 570 605 604
f 570 571 606 605
f 571 572 607 606
f 572 573 608 607
f 573 574 609 608
f 574 575 610 609
f 575 576 611 610
f 576 577 612 611
f 577 578 613 612
f 578 579 614 613
f 579 580 615 614
f 580 581 616 615
f 581 582 617 616
f 582 583 618 617
f 583 584 619 618
f 584 585 620 619
f 585 586 621 620
f 586 621 622
f 588 624 589
f 589 590 625 624
f 590 591 626 625
f 591 592 627 626
f 592 593 628 627
f 593 594 629 628
f 594 595 630 629
f 595 596 631 630
f 596 597 632 631
f 597 598 633 632
f 598 599 634 633
f 599 634 600
f 602 635 603
f 603 604 636 635
f 604 605 637 636
f 605 606 638 637
f 606 607 639 638
f 607 608 640 639
f 608 609 641 640
f 609 610 642 641
f 610 611 643 642
f 611 612 644 643
f 612 613 645 644
f 613 614 646 645
f 614 615 647 646
f 615 616 648 647
f 616 617 649 648
f 617 618 650 649
f 618 619 651 650
f 619 620 652 651
f 620 621 653 652
f 621 622 654 653
f 624 625 657 656
f 625 626 658 657
f 626 627 659 658
f 627 628 660 659
f 628 629 661 660
f 629 630 662 661
f 630 631 663 662
f 631 632 664 663
f 632 633 665 664
f 633 634 666 665
f 636 667 637
f 637 638 668 667
f 638 639 669 668
f 639 640 670 669
f 640 641 671 670
f 641 642 672 671
f 642 643 673 672
f 643 644 674 673
f 644 645 675 674
f 645 646 676 675
f 646 647 677 676
f 647 648 678 677
f 648 649 679 678
f 649 650 680 679
f 650 651 681 680
f 651 652 682 681
f 652 653 683 682
f 653 654 684 683
f 656 686 657
f 657 658 687 686
f 658 659 688 687
f 659 660 689 688
f 660 661 690 689
f 661 662 691 690
f 662 663 692 691
f 663 664 693 692
f 664 665 694 693
f 665 694 666
f 667 668 696 695
f 668 669 697 696
f 669 670 698 697
f 670 671 699 698
f 671 672 700 699
f 672 673 701 700
f 673 674 702 701
f 674 675 703 702
f 675 676 704 703
f 676 677 705 704
f 677 678 706 705
f 678 679 707 706
f 679 680 708 707
f 680 681 709 708
f 681 682 710 709
f 682 683 711 710
f 683 684 712 711
f 686 714 687
f 687 688 715 714
f 688 689 716 715
f 689 690 717 716
f 690 691 718 717
f 691 692 719 718
f 692 719 693
f 695 720 696
f 696 697 721 720
f 697 698 722 721
f 698 699 723 722
f 699 700 724 723
f 700 701 725 724
f 701 702 726 725
f 702 703 727 726
f 703 704 728 727
f 704 705 729 728
f 705 706 730 729
f 706 707 731 730
f 707 708 732 731
f 708 709 733 732
f 709 710 734 733
f 710 711 735 734
f 711 735 712
f 721 737 722
f 722 723 738 737
f 723 724 739 738
f 724 725 740 739
f 725 726 741 740
f 726 727 742 741
f 727 728 743 742
f 728 729 744 743
f 729 730 745 744
f 730 731 746 745
f 731 732 747 746
f 732 733 748 747
f 733 748 734
f 738 750 739
f 739 740 751 750
f 740 741 752 751
f 741 742 753 752
f 742 743 754 753
f 743 744 755 754
f 744 745 756 755
f 745 746 757 756
f 746 747 758 757
f 747 758 748
f 750 760 751
f 751 752 761 760
f 752 753 762 761
f 753 754 763 762
f 754 755 764 763
f 755 756 765 764
f 756 765 757
f 760 767 761
f 761 762 768 767
f 762 768 763
f 771 820 821
