# Blocky Terrain Generated From heightmap.txt
v 6.0000 0.0000 4.0000
v 7.0000 0.0000 4.0000
v 7.0000 0.0000 5.0000
v 6.0000 0.0000 5.0000
v 6.0000 1.0000 4.0000
v 7.0000 1.0000 4.0000
v 7.0000 1.0000 5.0000
v 6.0000 1.0000 5.0000
v 5.0000 0.0000 5.0000
v 6.0000 0.0000 5.0000
v 6.0000 0.0000 6.0000
v 5.0000 0.0000 6.0000
v 5.0000 1.0000 5.0000
v 6.0000 1.0000 5.0000
v 6.0000 1.0000 6.0000
v 5.0000 1.0000 6.0000
v 6.0000 0.0000 5.0000
v 7.0000 0.0000 5.0000
v 7.0000 0.0000 6.0000
v 6.0000 0.0000 6.0000
v 6.0000 1.0000 5.0000
v 7.0000 1.0000 5.0000
v 7.0000 1.0000 6.0000
v 6.0000 1.0000 6.0000
v 7.0000 0.0000 5.0000
v 8.0000 0.0000 5.0000
v 8.0000 0.0000 6.0000
v 7.0000 0.0000 6.0000
v 7.0000 1.0000 5.0000
v 8.0000 1.0000 5.0000
v 8.0000 1.0000 6.0000
v 7.0000 1.0000 6.0000
v 4.0000 0.0000 6.0000
v 5.0000 0.0000 6.0000
v 5.0000 0.0000 7.0000
v 4.0000 0.0000 7.0000
v 4.0000 1.0000 6.0000
v 5.0000 1.0000 6.0000
v 5.0000 1.0000 7.0000
v 4.0000 1.0000 7.0000
v 5.0000 0.0000 6.0000
v 6.0000 0.0000 6.0000
v 6.0000 0.0000 7.0000
v 5.0000 0.0000 7.0000
v 5.0000 1.0000 6.0000
v 6.0000 1.0000 6.0000
v 6.0000 1.0000 7.0000
v 5.0000 1.0000 7.0000
v 6.0000 0.0000 6.0000
v 7.0000 0.0000 6.0000
v 7.0000 0.0000 7.0000
v 6.0000 0.0000 7.0000
v 6.0000 1.0000 6.0000
v 7.0000 1.0000 6.0000
v 7.0000 1.0000 7.0000
v 6.0000 1.0000 7.0000
v 7.0000 0.0000 6.0000
v 8.0000 0.0000 6.0000
v 8.0000 0.0000 7.0000
v 7.0000 0.0000 7.0000
v 7.0000 1.0000 6.0000
v 8.0000 1.0000 6.0000
v 8.0000 1.0000 7.0000
v 7.0000 1.0000 7.0000
v 8.0000 0.0000 6.0000
v 9.0000 0.0000 6.0000
v 9.0000 0.0000 7.0000
v 8.0000 0.0000 7.0000
v 8.0000 1.0000 6.0000
v 9.0000 1.0000 6.0000
v 9.0000 1.0000 7.0000
v 8.0000 1.0000 7.0000
v 5.0000 0.0000 7.0000
v 6.0000 0.0000 7.0000
v 6.0000 0.0000 8.0000
v 5.0000 0.0000 8.0000
v 5.0000 1.0000 7.0000
v 6.0000 1.0000 7.0000
v 6.0000 1.0000 8.0000
v 5.0000 1.0000 8.0000
v 6.0000 0.0000 7.0000
v 7.0000 0.0000 7.0000
v 7.0000 0.0000 8.0000
v 6.0000 0.0000 8.0000
v 6.0000 1.0000 7.0000
v 7.0000 1.0000 7.0000
v 7.0000 1.0000 8.0000
v 6.0000 1.0000 8.0000
v 7.0000 0.0000 7.0000
v 8.0000 0.0000 7.0000
v 8.0000 0.0000 8.0000
v 7.0000 0.0000 8.0000
v 7.0000 1.0000 7.0000
v 8.0000 1.0000 7.0000
v 8.0000 1.0000 8.0000
v 7.0000 1.0000 8.0000
v 15.0000 0.0000 7.0000
v 16.0000 0.0000 7.0000
v 16.0000 0.0000 8.0000
v 15.0000 0.0000 8.0000
v 15.0000 1.0000 7.0000
v 16.0000 1.0000 7.0000
v 16.0000 1.0000 8.0000
v 15.0000 1.0000 8.0000
v 16.0000 0.0000 7.0000
v 17.0000 0.0000 7.0000
v 17.0000 0.0000 8.0000
v 16.0000 0.0000 8.0000
v 16.0000 1.0000 7.0000
v 17.0000 1.0000 7.0000
v 17.0000 1.0000 8.0000
v 16.0000 1.0000 8.0000
v 6.0000 0.0000 8.0000
v 7.0000 0.0000 8.0000
v 7.0000 0.0000 9.0000
v 6.0000 0.0000 9.0000
v 6.0000 1.0000 8.0000
v 7.0000 1.0000 8.0000
v 7.0000 1.0000 9.0000
v 6.0000 1.0000 9.0000
v 14.0000 0.0000 8.0000
v 15.0000 0.0000 8.0000
v 15.0000 0.0000 9.0000
v 14.0000 0.0000 9.0000
v 14.0000 1.0000 8.0000
v 15.0000 1.0000 8.0000
v 15.0000 1.0000 9.0000
v 14.0000 1.0000 9.0000
v 15.0000 0.0000 8.0000
v 16.0000 0.0000 8.0000
v 16.0000 0.0000 9.0000
v 15.0000 0.0000 9.0000
v 15.0000 1.0000 8.0000
v 16.0000 1.0000 8.0000
v 16.0000 1.0000 9.0000
v 15.0000 1.0000 9.0000
v 16.0000 0.0000 8.0000
v 17.0000 0.0000 8.0000
v 17.0000 0.0000 9.0000
v 16.0000 0.0000 9.0000
v 16.0000 1.0000 8.0000
v 17.0000 1.0000 8.0000
v 17.0000 1.0000 9.0000
v 16.0000 1.0000 9.0000
v 17.0000 0.0000 8.0000
v 18.0000 0.0000 8.0000
v 18.0000 0.0000 9.0000
v 17.0000 0.0000 9.0000
v 17.0000 1.0000 8.0000
v 18.0000 1.0000 8.0000
v 18.0000 1.0000 9.0000
v 17.0000 1.0000 9.0000
v 13.0000 0.0000 9.0000
v 14.0000 0.0000 9.0000
v 14.0000 0.0000 10.0000
v 13.0000 0.0000 10.0000
v 13.0000 1.0000 9.0000
v 14.0000 1.0000 9.0000
v 14.0000 1.0000 10.0000
v 13.0000 1.0000 10.0000
v 14.0000 0.0000 9.0000
v 15.0000 0.0000 9.0000
v 15.0000 0.0000 10.0000
v 14.0000 0.0000 10.0000
v 14.0000 1.0000 9.0000
v 15.0000 1.0000 9.0000
v 15.0000 1.0000 10.0000
v 14.0000 1.0000 10.0000
v 15.0000 0.0000 9.0000
v 16.0000 0.0000 9.0000
v 16.0000 0.0000 10.0000
v 15.0000 0.0000 10.0000
v 15.0000 1.0000 9.0000
v 16.0000 1.0000 9.0000
v 16.0000 1.0000 10.0000
v 15.0000 1.0000 10.0000
v 16.0000 0.0000 9.0000
v 17.0000 0.0000 9.0000
v 17.0000 0.0000 10.0000
v 16.0000 0.0000 10.0000
v 16.0000 1.0000 9.0000
v 17.0000 1.0000 9.0000
v 17.0000 1.0000 10.0000
v 16.0000 1.0000 10.0000
v 17.0000 0.0000 9.0000
v 18.0000 0.0000 9.0000
v 18.0000 0.0000 10.0000
v 17.0000 0.0000 10.0000
v 17.0000 1.0000 9.0000
v 18.0000 1.0000 9.0000
v 18.0000 1.0000 10.0000
v 17.0000 1.0000 10.0000
v 18.0000 0.0000 9.0000
v 19.0000 0.0000 9.0000
v 19.0000 0.0000 10.0000
v 18.0000 0.0000 10.0000
v 18.0000 1.0000 9.0000
v 19.0000 1.0000 9.0000
v 19.0000 1.0000 10.0000
v 18.0000 1.0000 10.0000
v 14.0000 0.0000 10.0000
v 15.0000 0.0000 10.0000
v 15.0000 0.0000 11.0000
v 14.0000 0.0000 11.0000
v 14.0000 1.0000 10.0000
v 15.0000 1.0000 10.0000
v 15.0000 1.0000 11.0000
v 14.0000 1.0000 11.0000
v 15.0000 0.0000 10.0000
v 16.0000 0.0000 10.0000
v 16.0000 0.0000 11.0000
v 15.0000 0.0000 11.0000
v 15.0000 1.0000 10.0000
v 16.0000 1.0000 10.0000
v 16.0000 1.0000 11.0000
v 15.0000 1.0000 11.0000
v 16.0000 0.0000 10.0000
v 17.0000 0.0000 10.0000
v 17.0000 0.0000 11.0000
v 16.0000 0.0000 11.0000
v 16.0000 1.0000 10.0000
v 17.0000 1.0000 10.0000
v 17.0000 1.0000 11.0000
v 16.0000 1.0000 11.0000
v 17.0000 0.0000 10.0000
v 18.0000 0.0000 10.0000
v 18.0000 0.0000 11.0000
v 17.0000 0.0000 11.0000
v 17.0000 1.0000 10.0000
v 18.0000 1.0000 10.0000
v 18.0000 1.0000 11.0000
v 17.0000 1.0000 11.0000
v 15.0000 0.0000 11.0000
v 16.0000 0.0000 11.0000
v 16.0000 0.0000 12.0000
v 15.0000 0.0000 12.0000
v 15.0000 1.0000 11.0000
v 16.0000 1.0000 11.0000
v 16.0000 1.0000 12.0000
v 15.0000 1.0000 12.0000
v 16.0000 0.0000 11.0000
v 17.0000 0.0000 11.0000
v 17.0000 0.0000 12.0000
v 16.0000 0.0000 12.0000
v 16.0000 1.0000 11.0000
v 17.0000 1.0000 11.0000
v 17.0000 1.0000 12.0000
v 16.0000 1.0000 12.0000
v 5.0000 0.0000 12.0000
v 6.0000 0.0000 12.0000
v 6.0000 0.0000 13.0000
v 5.0000 0.0000 13.0000
v 5.0000 1.0000 12.0000
v 6.0000 1.0000 12.0000
v 6.0000 1.0000 13.0000
v 5.0000 1.0000 13.0000
v 4.0000 0.0000 13.0000
v 5.0000 0.0000 13.0000
v 5.0000 0.0000 14.0000
v 4.0000 0.0000 14.0000
v 4.0000 1.0000 13.0000
v 5.0000 1.0000 13.0000
v 5.0000 1.0000 14.0000
v 4.0000 1.0000 14.0000
v 5.0000 0.0000 13.0000
v 6.0000 0.0000 13.0000
v 6.0000 0.0000 14.0000
v 5.0000 0.0000 14.0000
v 5.0000 1.0000 13.0000
v 6.0000 1.0000 13.0000
v 6.0000 1.0000 14.0000
v 5.0000 1.0000 14.0000
v 6.0000 0.0000 13.0000
v 7.0000 0.0000 13.0000
v 7.0000 0.0000 14.0000
v 6.0000 0.0000 14.0000
v 6.0000 1.0000 13.0000
v 7.0000 1.0000 13.0000
v 7.0000 1.0000 14.0000
v 6.0000 1.0000 14.0000
v 3.0000 0.0000 14.0000
v 4.0000 0.0000 14.0000
v 4.0000 0.0000 15.0000
v 3.0000 0.0000 15.0000
v 3.0000 1.0000 14.0000
v 4.0000 1.0000 14.0000
v 4.0000 1.0000 15.0000
v 3.0000 1.0000 15.0000
v 4.0000 0.0000 14.0000
v 5.0000 0.0000 14.0000
v 5.0000 0.0000 15.0000
v 4.0000 0.0000 15.0000
v 4.0000 1.0000 14.0000
v 5.0000 1.0000 14.0000
v 5.0000 1.0000 15.0000
v 4.0000 1.0000 15.0000
v 5.0000 0.0000 14.0000
v 6.0000 0.0000 14.0000
v 6.0000 0.0000 15.0000
v 5.0000 0.0000 15.0000
v 5.0000 1.0000 14.0000
v 6.0000 1.0000 14.0000
v 6.0000 1.0000 15.0000
v 5.0000 1.0000 15.0000
v 6.0000 0.0000 14.0000
v 7.0000 0.0000 14.0000
v 7.0000 0.0000 15.0000
v 6.0000 0.0000 15.0000
v 6.0000 1.0000 14.0000
v 7.0000 1.0000 14.0000
v 7.0000 1.0000 15.0000
v 6.0000 1.0000 15.0000
v 7.0000 0.0000 14.0000
v 8.0000 0.0000 14.0000
v 8.0000 0.0000 15.0000
v 7.0000 0.0000 15.0000
v 7.0000 1.0000 14.0000
v 8.0000 1.0000 14.0000
v 8.0000 1.0000 15.0000
v 7.0000 1.0000 15.0000
v 3.0000 0.0000 15.0000
v 4.0000 0.0000 15.0000
v 4.0000 0.0000 16.0000
v 3.0000 0.0000 16.0000
v 3.0000 1.0000 15.0000
v 4.0000 1.0000 15.0000
v 4.0000 1.0000 16.0000
v 3.0000 1.0000 16.0000
v 4.0000 0.0000 15.0000
v 5.0000 0.0000 15.0000
v 5.0000 0.0000 16.0000
v 4.0000 0.0000 16.0000
v 4.0000 1.0000 15.0000
v 5.0000 1.0000 15.0000
v 5.0000 1.0000 16.0000
v 4.0000 1.0000 16.0000
v 5.0000 0.0000 15.0000
v 6.0000 0.0000 15.0000
v 6.0000 0.0000 16.0000
v 5.0000 0.0000 16.0000
v 5.0000 1.0000 15.0000
v 6.0000 1.0000 15.0000
v 6.0000 1.0000 16.0000
v 5.0000 1.0000 16.0000
v 6.0000 0.0000 15.0000
v 7.0000 0.0000 15.0000
v 7.0000 0.0000 16.0000
v 6.0000 0.0000 16.0000
v 6.0000 1.0000 15.0000
v 7.0000 1.0000 15.0000
v 7.0000 1.0000 16.0000
v 6.0000 1.0000 16.0000
v 7.0000 0.0000 15.0000
v 8.0000 0.0000 15.0000
v 8.0000 0.0000 16.0000
v 7.0000 0.0000 16.0000
v 7.0000 1.0000 15.0000
v 8.0000 1.0000 15.0000
v 8.0000 1.0000 16.0000
v 7.0000 1.0000 16.0000
v 14.0000 0.0000 15.0000
v 15.0000 0.0000 15.0000
v 15.0000 0.0000 16.0000
v 14.0000 0.0000 16.0000
v 14.0000 1.0000 15.0000
v 15.0000 1.0000 15.0000
v 15.0000 1.0000 16.0000
v 14.0000 1.0000 16.0000
v 4.0000 0.0000 16.0000
v 5.0000 0.0000 16.0000
v 5.0000 0.0000 17.0000
v 4.0000 0.0000 17.0000
v 4.0000 1.0000 16.0000
v 5.0000 1.0000 16.0000
v 5.0000 1.0000 17.0000
v 4.0000 1.0000 17.0000
v 5.0000 0.0000 16.0000
v 6.0000 0.0000 16.0000
v 6.0000 0.0000 17.0000
v 5.0000 0.0000 17.0000
v 5.0000 1.0000 16.0000
v 6.0000 1.0000 16.0000
v 6.0000 1.0000 17.0000
v 5.0000 1.0000 17.0000
v 6.0000 0.0000 16.0000
v 7.0000 0.0000 16.0000
v 7.0000 0.0000 17.0000
v 6.0000 0.0000 17.0000
v 6.0000 1.0000 16.0000
v 7.0000 1.0000 16.0000
v 7.0000 1.0000 17.0000
v 6.0000 1.0000 17.0000
v 13.0000 0.0000 16.0000
v 14.0000 0.0000 16.0000
v 14.0000 0.0000 17.0000
v 13.0000 0.0000 17.0000
v 13.0000 1.0000 16.0000
v 14.0000 1.0000 16.0000
v 14.0000 1.0000 17.0000
v 13.0000 1.0000 17.0000
v 14.0000 0.0000 16.0000
v 15.0000 0.0000 16.0000
v 15.0000 0.0000 17.0000
v 14.0000 0.0000 17.0000
v 14.0000 1.0000 16.0000
v 15.0000 1.0000 16.0000
v 15.0000 1.0000 17.0000
v 14.0000 1.0000 17.0000
v 15.0000 0.0000 16.0000
v 16.0000 0.0000 16.0000
v 16.0000 0.0000 17.0000
v 15.0000 0.0000 17.0000
v 15.0000 1.0000 16.0000
v 16.0000 1.0000 16.0000
v 16.0000 1.0000 17.0000
v 15.0000 1.0000 17.0000
v 5.0000 0.0000 17.0000
v 6.0000 0.0000 17.0000
v 6.0000 0.0000 18.0000
v 5.0000 0.0000 18.0000
v 5.0000 1.0000 17.0000
v 6.0000 1.0000 17.0000
v 6.0000 1.0000 18.0000
v 5.0000 1.0000 18.0000
v 12.0000 0.0000 17.0000
v 13.0000 0.0000 17.0000
v 13.0000 0.0000 18.0000
v 12.0000 0.0000 18.0000
v 12.0000 1.0000 17.0000
v 13.0000 1.0000 17.0000
v 13.0000 1.0000 18.0000
v 12.0000 1.0000 18.0000
v 13.0000 0.0000 17.0000
v 14.0000 0.0000 17.0000
v 14.0000 0.0000 18.0000
v 13.0000 0.0000 18.0000
v 13.0000 1.0000 17.0000
v 14.0000 1.0000 17.0000
v 14.0000 1.0000 18.0000
v 13.0000 1.0000 18.0000
v 14.0000 0.0000 17.0000
v 15.0000 0.0000 17.0000
v 15.0000 0.0000 18.0000
v 14.0000 0.0000 18.0000
v 14.0000 1.0000 17.0000
v 15.0000 1.0000 17.0000
v 15.0000 1.0000 18.0000
v 14.0000 1.0000 18.0000
v 15.0000 0.0000 17.0000
v 16.0000 0.0000 17.0000
v 16.0000 0.0000 18.0000
v 15.0000 0.0000 18.0000
v 15.0000 1.0000 17.0000
v 16.0000 1.0000 17.0000
v 16.0000 1.0000 18.0000
v 15.0000 1.0000 18.0000
v 16.0000 0.0000 17.0000
v 17.0000 0.0000 17.0000
v 17.0000 0.0000 18.0000
v 16.0000 0.0000 18.0000
v 16.0000 1.0000 17.0000
v 17.0000 1.0000 17.0000
v 17.0000 1.0000 18.0000
v 16.0000 1.0000 18.0000
v 13.0000 0.0000 18.0000
v 14.0000 0.0000 18.0000
v 14.0000 0.0000 19.0000
v 13.0000 0.0000 19.0000
v 13.0000 1.0000 18.0000
v 14.0000 1.0000 18.0000
v 14.0000 1.0000 19.0000
v 13.0000 1.0000 19.0000
v 14.0000 0.0000 18.0000
v 15.0000 0.0000 18.0000
v 15.0000 0.0000 19.0000
v 14.0000 0.0000 19.0000
v 14.0000 1.0000 18.0000
v 15.0000 1.0000 18.0000
v 15.0000 1.0000 19.0000
v 14.0000 1.0000 19.0000
v 15.0000 0.0000 18.0000
v 16.0000 0.0000 18.0000
v 16.0000 0.0000 19.0000
v 15.0000 0.0000 19.0000
v 15.0000 1.0000 18.0000
v 16.0000 1.0000 18.0000
v 16.0000 1.0000 19.0000
v 15.0000 1.0000 19.0000
v 16.0000 0.0000 18.0000
v 17.0000 0.0000 18.0000
v 17.0000 0.0000 19.0000
v 16.0000 0.0000 19.0000
v 16.0000 1.0000 18.0000
v 17.0000 1.0000 18.0000
v 17.0000 1.0000 19.0000
v 16.0000 1.0000 19.0000
v 17.0000 0.0000 18.0000
v 18.0000 0.0000 18.0000
v 18.0000 0.0000 19.0000
v 17.0000 0.0000 19.0000
v 17.0000 1.0000 18.0000
v 18.0000 1.0000 18.0000
v 18.0000 1.0000 19.0000
v 17.0000 1.0000 19.0000
v 14.0000 0.0000 19.0000
v 15.0000 0.0000 19.0000
v 15.0000 0.0000 20.0000
v 14.0000 0.0000 20.0000
v 14.0000 1.0000 19.0000
v 15.0000 1.0000 19.0000
v 15.0000 1.0000 20.0000
v 14.0000 1.0000 20.0000
v 15.0000 0.0000 19.0000
v 16.0000 0.0000 19.0000
v 16.0000 0.0000 20.0000
v 15.0000 0.0000 20.0000
v 15.0000 1.0000 19.0000
v 16.0000 1.0000 19.0000
v 16.0000 1.0000 20.0000
v 15.0000 1.0000 20.0000
v 16.0000 0.0000 19.0000
v 17.0000 0.0000 19.0000
v 17.0000 0.0000 20.0000
v 16.0000 0.0000 20.0000
v 16.0000 1.0000 19.0000
v 17.0000 1.0000 19.0000
v 17.0000 1.0000 20.0000
v 16.0000 1.0000 20.0000
v 15.0000 0.0000 20.0000
v 16.0000 0.0000 20.0000
v 16.0000 0.0000 21.0000
v 15.0000 0.0000 21.0000
v 15.0000 1.0000 20.0000
v 16.0000 1.0000 20.0000
v 16.0000 1.0000 21.0000
v 15.0000 1.0000 21.0000
f 5 6 7
f 5 7 8
f 1 3 2
f 1 4 3
f 1 2 6
f 1 6 5
f 2 3 7
f 2 7 6
f 3 4 8
f 3 8 7
f 4 1 5
f 4 5 8
f 13 14 15
f 13 15 16
f 9 11 10
f 9 12 11
f 9 10 14
f 9 14 13
f 10 11 15
f 10 15 14
f 11 12 16
f 11 16 15
f 12 9 13
f 12 13 16
f 21 22 23
f 21 23 24
f 17 19 18
f 17 20 19
f 17 18 22
f 17 22 21
f 18 19 23
f 18 23 22
f 19 20 24
f 19 24 23
f 20 17 21
f 20 21 24
f 29 30 31
f 29 31 32
f 25 27 26
f 25 28 27
f 25 26 30
f 25 30 29
f 26 27 31
f 26 31 30
f 27 28 32
f 27 32 31
f 28 25 29
f 28 29 32
f 37 38 39
f 37 39 40
f 33 35 34
f 33 36 35
f 33 34 38
f 33 38 37
f 34 35 39
f 34 39 38
f 35 36 40
f 35 40 39
f 36 33 37
f 36 37 40
f 45 46 47
f 45 47 48
f 41 43 42
f 41 44 43
f 41 42 46
f 41 46 45
f 42 43 47
f 42 47 46
f 43 44 48
f 43 48 47
f 44 41 45
f 44 45 48
f 53 54 55
f 53 55 56
f 49 51 50
f 49 52 51
f 49 50 54
f 49 54 53
f 50 51 55
f 50 55 54
f 51 52 56
f 51 56 55
f 52 49 53
f 52 53 56
f 61 62 63
f 61 63 64
f 57 59 58
f 57 60 59
f 57 58 62
f 57 62 61
f 58 59 63
f 58 63 62
f 59 60 64
f 59 64 63
f 60 57 61
f 60 61 64
f 69 70 71
f 69 71 72
f 65 67 66
f 65 68 67
f 65 66 70
f 65 70 69
f 66 67 71
f 66 71 70
f 67 68 72
f 67 72 71
f 68 65 69
f 68 69 72
f 77 78 79
f 77 79 80
f 73 75 74
f 73 76 75
f 73 74 78
f 73 78 77
f 74 75 79
f 74 79 78
f 75 76 80
f 75 80 79
f 76 73 77
f 76 77 80
f 85 86 87
f 85 87 88
f 81 83 82
f 81 84 83
f 81 82 86
f 81 86 85
f 82 83 87
f 82 87 86
f 83 84 88
f 83 88 87
f 84 81 85
f 84 85 88
f 93 94 95
f 93 95 96
f 89 91 90
f 89 92 91
f 89 90 94
f 89 94 93
f 90 91 95
f 90 95 94
f 91 92 96
f 91 96 95
f 92 89 93
f 92 93 96
f 101 102 103
f 101 103 104
f 97 99 98
f 97 100 99
f 97 98 102
f 97 102 101
f 98 99 103
f 98 103 102
f 99 100 104
f 99 104 103
f 100 97 101
f 100 101 104
f 109 110 111
f 109 111 112
f 105 107 106
f 105 108 107
f 105 106 110
f 105 110 109
f 106 107 111
f 106 111 110
f 107 108 112
f 107 112 111
f 108 105 109
f 108 109 112
f 117 118 119
f 117 119 120
f 113 115 114
f 113 116 115
f 113 114 118
f 113 118 117
f 114 115 119
f 114 119 118
f 115 116 120
f 115 120 119
f 116 113 117
f 116 117 120
f 125 126 127
f 125 127 128
f 121 123 122
f 121 124 123
f 121 122 126
f 121 126 125
f 122 123 127
f 122 127 126
f 123 124 128
f 123 128 127
f 124 121 125
f 124 125 128
f 133 134 135
f 133 135 136
f 129 131 130
f 129 132 131
f 129 130 134
f 129 134 133
f 130 131 135
f 130 135 134
f 131 132 136
f 131 136 135
f 132 129 133
f 132 133 136
f 141 142 143
f 141 143 144
f 137 139 138
f 137 140 139
f 137 138 142
f 137 142 141
f 138 139 143
f 138 143 142
f 139 140 144
f 139 144 143
f 140 137 141
f 140 141 144
f 149 150 151
f 149 151 152
f 145 147 146
f 145 148 147
f 145 146 150
f 145 150 149
f 146 147 151
f 146 151 150
f 147 148 152
f 147 152 151
f 148 145 149
f 148 149 152
f 157 158 159
f 157 159 160
f 153 155 154
f 153 156 155
f 153 154 158
f 153 158 157
f 154 155 159
f 154 159 158
f 155 156 160
f 155 160 159
f 156 153 157
f 156 157 160
f 165 166 167
f 165 167 168
f 161 163 162
f 161 164 163
f 161 162 166
f 161 166 165
f 162 163 167
f 162 167 166
f 163 164 168
f 163 168 167
f 164 161 165
f 164 165 168
f 173 174 175
f 173 175 176
f 169 171 170
f 169 172 171
f 169 170 174
f 169 174 173
f 170 171 175
f 170 175 174
f 171 172 176
f 171 176 175
f 172 169 173
f 172 173 176
f 181 182 183
f 181 183 184
f 177 179 178
f 177 180 179
f 177 178 182
f 177 182 181
f 178 179 183
f 178 183 182
f 179 180 184
f 179 184 183
f 180 177 181
f 180 181 184
f 189 190 191
f 189 191 192
f 185 187 186
f 185 188 187
f 185 186 190
f 185 190 189
f 186 187 191
f 186 191 190
f 187 188 192
f 187 192 191
f 188 185 189
f 188 189 192
f 197 198 199
f 197 199 200
f 193 195 194
f 193 196 195
f 193 194 198
f 193 198 197
f 194 195 199
f 194 199 198
f 195 196 200
f 195 200 199
f 196 193 197
f 196 197 200
f 205 206 207
f 205 207 208
f 201 203 202
f 201 204 203
f 201 202 206
f 201 206 205
f 202 203 207
f 202 207 206
f 203 204 208
f 203 208 207
f 204 201 205
f 204 205 208
f 213 214 215
f 213 215 216
f 209 211 210
f 209 212 211
f 209 210 214
f 209 214 213
f 210 211 215
f 210 215 214
f 211 212 216
f 211 216 215
f 212 209 213
f 212 213 216
f 221 222 223
f 221 223 224
f 217 219 218
f 217 220 219
f 217 218 222
f 217 222 221
f 218 219 223
f 218 223 222
f 219 220 224
f 219 224 223
f 220 217 221
f 220 221 224
f 229 230 231
f 229 231 232
f 225 227 226
f 225 228 227
f 225 226 230
f 225 230 229
f 226 227 231
f 226 231 230
f 227 228 232
f 227 232 231
f 228 225 229
f 228 229 232
f 237 238 239
f 237 239 240
f 233 235 234
f 233 236 235
f 233 234 238
f 233 238 237
f 234 235 239
f 234 239 238
f 235 236 240
f 235 240 239
f 236 233 237
f 236 237 240
f 245 246 247
f 245 247 248
f 241 243 242
f 241 244 243
f 241 242 246
f 241 246 245
f 242 243 247
f 242 247 246
f 243 244 248
f 243 248 247
f 244 241 245
f 244 245 248
f 253 254 255
f 253 255 256
f 249 251 250
f 249 252 251
f 249 250 254
f 249 254 253
f 250 251 255
f 250 255 254
f 251 252 256
f 251 256 255
f 252 249 253
f 252 253 256
f 261 262 263
f 261 263 264
f 257 259 258
f 257 260 259
f 257 258 262
f 257 262 261
f 258 259 263
f 258 263 262
f 259 260 264
f 259 264 263
f 260 257 261
f 260 261 264
f 269 270 271
f 269 271 272
f 265 267 266
f 265 268 267
f 265 266 270
f 265 270 269
f 266 267 271
f 266 271 270
f 267 268 272
f 267 272 271
f 268 265 269
f 268 269 272
f 277 278 279
f 277 279 280
f 273 275 274
f 273 276 275
f 273 274 278
f 273 278 277
f 274 275 279
f 274 279 278
f 275 276 280
f 275 280 279
f 276 273 277
f 276 277 280
f 285 286 287
f 285 287 288
f 281 283 282
f 281 284 283
f 281 282 286
f 281 286 285
f 282 283 287
f 282 287 286
f 283 284 288
f 283 288 287
f 284 281 285
f 284 285 288
f 293 294 295
f 293 295 296
f 289 291 290
f 289 292 291
f 289 290 294
f 289 294 293
f 290 291 295
f 290 295 294
f 291 292 296
f 291 296 295
f 292 289 293
f 292 293 296
f 301 302 303
f 301 303 304
f 297 299 298
f 297 300 299
f 297 298 302
f 297 302 301
f 298 299 303
f 298 303 302
f 299 300 304
f 299 304 303
f 300 297 301
f 300 301 304
f 309 310 311
f 309 311 312
f 305 307 306
f 305 308 307
f 305 306 310
f 305 310 309
f 306 307 311
f 306 311 310
f 307 308 312
f 307 312 311
f 308 305 309
f 308 309 312
f 317 318 319
f 317 319 320
f 313 315 314
f 313 316 315
f 313 314 318
f 313 318 317
f 314 315 319
f 314 319 318
f 315 316 320
f 315 320 319
f 316 313 317
f 316 317 320
f 325 326 327
f 325 327 328
f 321 323 322
f 321 324 323
f 321 322 326
f 321 326 325
f 322 323 327
f 322 327 326
f 323 324 328
f 323 328 327
f 324 321 325
f 324 325 328
f 333 334 335
f 333 335 336
f 329 331 330
f 329 332 331
f 329 330 334
f 329 334 333
f 330 331 335
f 330 335 334
f 331 332 336
f 331 336 335
f 332 329 333
f 332 333 336
f 341 342 343
f 341 343 344
f 337 339 338
f 337 340 339
f 337 338 342
f 337 342 341
f 338 339 343
f 338 343 342
f 339 340 344
f 339 344 343
f 340 337 341
f 340 341 344
f 349 350 351
f 349 351 352
f 345 347 346
f 345 348 347
f 345 346 350
f 345 350 349
f 346 347 351
f 346 351 350
f 347 348 352
f 347 352 351
f 348 345 349
f 348 349 352
f 357 358 359
f 357 359 360
f 353 355 354
f 353 356 355
f 353 354 358
f 353 358 357
f 354 355 359
f 354 359 358
f 355 356 360
f 355 360 359
f 356 353 357
f 356 357 360
f 365 366 367
f 365 367 368
f 361 363 362
f 361 364 363
f 361 362 366
f 361 366 365
f 362 363 367
f 362 367 366
f 363 364 368
f 363 368 367
f 364 361 365
f 364 365 368
f 373 374 375
f 373 375 376
f 369 371 370
f 369 372 371
f 369 370 374
f 369 374 373
f 370 371 375
f 370 375 374
f 371 372 376
f 371 376 375
f 372 369 373
f 372 373 376
f 381 382 383
f 381 383 384
f 377 379 378
f 377 380 379
f 377 378 382
f 377 382 381
f 378 379 383
f 378 383 382
f 379 380 384
f 379 384 383
f 380 377 381
f 380 381 384
f 389 390 391
f 389 391 392
f 385 387 386
f 385 388 387
f 385 386 390
f 385 390 389
f 386 387 391
f 386 391 390
f 387 388 392
f 387 392 391
f 388 385 389
f 388 389 392
f 397 398 399
f 397 399 400
f 393 395 394
f 393 396 395
f 393 394 398
f 393 398 397
f 394 395 399
f 394 399 398
f 395 396 400
f 395 400 399
f 396 393 397
f 396 397 400
f 405 406 407
f 405 407 408
f 401 403 402
f 401 404 403
f 401 402 406
f 401 406 405
f 402 403 407
f 402 407 406
f 403 404 408
f 403 408 407
f 404 401 405
f 404 405 408
f 413 414 415
f 413 415 416
f 409 411 410
f 409 412 411
f 409 410 414
f 409 414 413
f 410 411 415
f 410 415 414
f 411 412 416
f 411 416 415
f 412 409 413
f 412 413 416
f 421 422 423
f 421 423 424
f 417 419 418
f 417 420 419
f 417 418 422
f 417 422 421
f 418 419 423
f 418 423 422
f 419 420 424
f 419 424 423
f 420 417 421
f 420 421 424
f 429 430 431
f 429 431 432
f 425 427 426
f 425 428 427
f 425 426 430
f 425 430 429
f 426 427 431
f 426 431 430
f 427 428 432
f 427 432 431
f 428 425 429
f 428 429 432
f 437 438 439
f 437 439 440
f 433 435 434
f 433 436 435
f 433 434 438
f 433 438 437
f 434 435 439
f 434 439 438
f 435 436 440
f 435 440 439
f 436 433 437
f 436 437 440
f 445 446 447
f 445 447 448
f 441 443 442
f 441 444 443
f 441 442 446
f 441 446 445
f 442 443 447
f 442 447 446
f 443 444 448
f 443 448 447
f 444 441 445
f 444 445 448
f 453 454 455
f 453 455 456
f 449 451 450
f 449 452 451
f 449 450 454
f 449 454 453
f 450 451 455
f 450 455 454
f 451 452 456
f 451 456 455
f 452 449 453
f 452 453 456
f 461 462 463
f 461 463 464
f 457 459 458
f 457 460 459
f 457 458 462
f 457 462 461
f 458 459 463
f 458 463 462
f 459 460 464
f 459 464 463
f 460 457 461
f 460 461 464
f 469 470 471
f 469 471 472
f 465 467 466
f 465 468 467
f 465 466 470
f 465 470 469
f 466 467 471
f 466 471 470
f 467 468 472
f 467 472 471
f 468 465 469
f 468 469 472
f 477 478 479
f 477 479 480
f 473 475 474
f 473 476 475
f 473 474 478
f 473 478 477
f 474 475 479
f 474 479 478
f 475 476 480
f 475 480 479
f 476 473 477
f 476 477 480
f 485 486 487
f 485 487 488
f 481 483 482
f 481 484 483
f 481 482 486
f 481 486 485
f 482 483 487
f 482 487 486
f 483 484 488
f 483 488 487
f 484 481 485
f 484 485 488
f 493 494 495
f 493 495 496
f 489 491 490
f 489 492 491
f 489 490 494
f 489 494 493
f 490 491 495
f 490 495 494
f 491 492 496
f 491 496 495
f 492 489 493
f 492 493 496
f 501 502 503
f 501 503 504
f 497 499 498
f 497 500 499
f 497 498 502
f 497 502 501
f 498 499 503
f 498 503 502
f 499 500 504
f 499 504 503
f 500 497 501
f 500 501 504
f 509 510 511
f 509 511 512
f 505 507 506
f 505 508 507
f 505 506 510
f 505 510 509
f 506 507 511
f 506 511 510
f 507 508 512
f 507 512 511
f 508 505 509
f 508 509 512
f 517 518 519
f 517 519 520
f 513 515 514
f 513 516 515
f 513 514 518
f 513 518 517
f 514 515 519
f 514 519 518
f 515 516 520
f 515 520 519
f 516 513 517
f 516 517 520
f 525 526 527
f 525 527 528
f 521 523 522
f 521 524 523
f 521 522 526
f 521 526 525
f 522 523 527
f 522 527 526
f 523 524 528
f 523 528 527
f 524 521 525
f 524 525 528
f 533 534 535
f 533 535 536
f 529 531 530
f 529 532 531
f 529 530 534
f 529 534 533
f 530 531 535
f 530 535 534
f 531 532 536
f 531 536 535
f 532 529 533
f 532 533 536
