# Terrain generated from heightmap.txt
v 6.0000 0.0000 4.0000
v 5.0000 0.0000 5.0000
v 6.0000 2.0000 5.0000
v 7.0000 0.0000 5.0000
v 4.0000 0.0000 6.0000
v 5.0000 2.0000 6.0000
v 6.0000 2.0000 6.0000
v 7.0000 2.0000 6.0000
v 8.0000 0.0000 6.0000
v 5.0000 0.0000 7.0000
v 6.0000 2.0000 7.0000
v 7.0000 0.0000 7.0000
v 15.0000 0.0000 7.0000
v 16.0000 0.0000 7.0000
v 6.0000 0.0000 8.0000
v 14.0000 0.0000 8.0000
v 15.0000 2.0000 8.0000
v 16.0000 2.0000 8.0000
v 17.0000 0.0000 8.0000
v 13.0000 0.0000 9.0000
v 14.0000 2.0000 9.0000
v 15.0000 2.0000 9.0000
v 16.0000 2.0000 9.0000
v 17.0000 2.0000 9.0000
v 18.0000 0.0000 9.0000
v 14.0000 0.0000 10.0000
v 15.0000 2.0000 10.0000
v 16.0000 2.0000 10.0000
v 17.0000 0.0000 10.0000
v 15.0000 0.0000 11.0000
v 16.0000 0.0000 11.0000
v 5.0000 0.0000 12.0000
v 4.0000 0.0000 13.0000
v 5.0000 2.0000 13.0000
v 6.0000 0.0000 13.0000
v 3.0000 0.0000 14.0000
v 4.0000 2.0000 14.0000
v 5.0000 2.0000 14.0000
v 6.0000 2.0000 14.0000
v 7.0000 0.0000 14.0000
v 3.0000 0.0000 15.0000
v 4.0000 2.0000 15.0000
v 5.0000 2.0000 15.0000
v 6.0000 2.0000 15.0000
v 7.0000 0.0000 15.0000
v 14.0000 0.0000 15.0000
v 4.0000 0.0000 16.0000
v 5.0000 2.0000 16.0000
v 6.0000 0.0000 16.0000
v 13.0000 0.0000 16.0000
v 14.0000 2.0000 16.0000
v 15.0000 0.0000 16.0000
v 5.0000 0.0000 17.0000
v 12.0000 0.0000 17.0000
v 13.0000 2.0000 17.0000
v 14.0000 2.0000 17.0000
v 15.0000 2.0000 17.0000
v 16.0000 0.0000 17.0000
v 13.0000 0.0000 18.0000
v 14.0000 2.0000 18.0000
v 15.0000 2.0000 18.0000
v 16.0000 2.0000 18.0000
v 17.0000 0.0000 18.0000
v 14.0000 0.0000 19.0000
v 15.0000 2.0000 19.0000
v 16.0000 0.0000 19.0000
v 15.0000 0.0000 20.0000
f 1 2 3
f 1 3 4
f 2 5 6
f 2 6 3
f 3 6 7
f 3 7 4
f 4 7 8
f 4 8 9
f 5 10 6
f 6 10 7
f 7 10 11
f 7 11 8
f 8 11 12
f 8 12 9
f 10 15 11
f 11 15 12
f 13 16 17
f 13 17 14
f 14 17 18
f 14 18 19
f 16 20 21
f 16 21 17
f 17 21 22
f 17 22 18
f 18 22 23
f 18 23 19
f 19 23 24
f 19 24 25
f 20 26 21
f 21 26 22
f 22 26 27
f 22 27 23
f 23 27 28
f 23 28 24
f 24 28 29
f 24 29 25
f 26 30 27
f 27 30 28
f 28 30 31
f 28 31 29
f 32 33 34
f 32 34 35
f 33 36 37
f 33 37 34
f 34 37 38
f 34 38 35
f 35 38 39
f 35 39 40
f 36 41 37
f 37 41 42
f 37 42 38
f 38 42 43
f 38 43 39
f 39 43 44
f 39 44 40
f 40 44 45
f 41 47 42
f 42 47 43
f 43 47 48
f 43 48 44
f 44 48 49
f 44 49 45
f 46 50 51
f 46 51 52
f 47 53 48
f 48 53 49
f 50 54 55
f 50 55 51
f 51 55 56
f 51 56 52
f 52 56 57
f 52 57 58
f 54 59 55
f 55 59 56
f 56 59 60
f 56 60 57
f 57 60 61
f 57 61 58
f 58 61 62
f 58 62 63
f 59 64 60
f 60 64 61
f 61 64 65
f 61 65 62
f 62 65 66
f 62 66 63
f 64 67 65
f 65 67 66
